<svg width="120" height="192" viewBox="0 0 120 192" fill="none" xmlns="http://www.w3.org/2000/svg">
<path fill-rule="evenodd" clip-rule="evenodd" d="M9.83724 163.487L8.56972 167.122C8.16315 168.318 7.6131 169.234 6.91955 169.872C6.23397 170.502 5.42084 170.821 4.50408 170.821C3.32425 170.821 2.35966 170.454 1.60234 169.697C0.845012 168.947 0.470337 168.007 0.470337 166.867C0.470337 166.412 0.502222 165.982 0.573969 165.583C0.645715 165.185 0.741381 164.826 0.876902 164.499L10.5467 139.101C11.2403 137.275 12.1252 135.928 13.1695 135.075C14.2138 134.222 15.5052 133.792 17.0358 133.792C18.4787 133.792 19.7383 134.198 20.7985 135.011C21.8588 135.832 22.6799 137.012 23.2538 138.551L32.6765 164.371C32.8599 164.922 32.9954 165.408 33.0911 165.83C33.1867 166.261 33.2266 166.643 33.2266 166.97C33.2266 168.11 32.836 169.035 32.0547 169.752C31.2735 170.47 30.269 170.821 29.0494 170.821C27.9492 170.821 27.0484 170.494 26.323 169.832C25.5976 169.178 25.0316 168.174 24.609 166.819L23.5647 163.487H9.82927H9.83724ZM12.2447 155.937H21.1174L16.8285 142.608L12.2368 155.937H12.2447ZM44.8974 164.898C44.8974 166.859 44.5466 168.318 43.8531 169.274C43.1595 170.223 42.0913 170.709 40.6643 170.709C39.2374 170.709 38.1691 170.231 37.4676 169.274C36.7741 168.326 36.4233 166.867 36.4233 164.898V140.065C36.4233 137.873 36.8618 136.366 37.7227 135.545C38.5916 134.716 40.1063 134.31 42.2667 134.31H49.8957C54.0889 134.31 57.4131 135.402 59.8366 137.602C62.268 139.802 63.4877 142.776 63.4877 146.523C63.4877 150.269 62.3477 153.322 60.0678 155.483C57.7958 157.643 54.631 158.719 50.5813 158.719H44.8974V164.898ZM44.8974 151.282H48.5485C50.4617 151.282 51.9126 150.883 52.8772 150.086C53.8418 149.289 54.328 148.101 54.328 146.523C54.328 144.944 53.8577 143.748 52.917 142.983C51.9684 142.218 50.5175 141.835 48.5485 141.835H44.8974V151.282ZM71.3001 163.487H85.0355L86.0799 166.819C86.5024 168.174 87.0684 169.178 87.7938 169.832C88.5192 170.486 89.4201 170.821 90.5202 170.821C91.7399 170.821 92.7443 170.47 93.5256 169.752C94.3068 169.035 94.7054 168.11 94.7054 166.97C94.7054 166.643 94.6655 166.261 94.5699 165.83C94.4742 165.408 94.3387 164.922 94.1553 164.371L84.7326 138.551C84.1586 137.012 83.3375 135.832 82.2773 135.011C81.217 134.19 79.9575 133.792 78.5146 133.792C76.984 133.792 75.6926 134.222 74.6482 135.075C73.6039 135.936 72.727 137.275 72.0255 139.101L62.3557 164.499C62.2202 164.826 62.1165 165.193 62.0527 165.583C61.989 165.974 61.9491 166.412 61.9491 166.867C61.9491 168.007 62.3238 168.947 63.0811 169.697C63.8384 170.446 64.803 170.821 65.9829 170.821C66.8996 170.821 67.7048 170.502 68.3983 169.872C69.0839 169.242 69.634 168.325 70.0485 167.122L71.316 163.487H71.3001ZM73.7076 155.937L78.2993 142.608L82.5802 155.937H73.7076ZM113.248 134.302C115.257 134.302 116.763 134.621 117.768 135.25C118.772 135.88 119.275 136.853 119.275 138.152C119.275 139.452 118.78 140.368 117.784 140.99C116.779 141.612 115.273 141.923 113.248 141.923H106.368V148.348H112.307C114.324 148.348 115.847 148.659 116.835 149.281C117.832 149.903 118.326 150.867 118.326 152.143C118.326 153.418 117.832 154.375 116.835 154.989C115.847 155.602 114.324 155.913 112.307 155.913H106.368V162.665H113.511C115.552 162.665 117.066 162.976 118.047 163.598C119.027 164.22 119.53 165.177 119.53 166.436C119.53 167.696 119.035 168.676 118.047 169.298C117.066 169.92 115.552 170.231 113.511 170.231H103.634C101.442 170.231 99.9349 169.872 99.1218 169.147C98.3007 168.421 97.8941 167.066 97.8941 165.073V140.025C97.8941 137.841 98.3326 136.335 99.1935 135.505C100.062 134.684 101.577 134.278 103.737 134.278H113.248V134.302Z" fill="#1F2023"/>
<path fill-rule="evenodd" clip-rule="evenodd" d="M58.5611 55.8828V81.5681C58.5611 83.864 57.8117 88.7268 59.996 88.7268H60.1395C62.2042 88.7268 61.431 83.4414 61.431 81.2651V55.8828H58.5531H58.5611ZM63.5993 72.6157C63.5993 72.8628 63.7906 73.1498 63.8863 73.3332C66.8757 73.3332 67.4417 73.4288 69.8333 72.233C71.1566 71.5714 72.9742 70.0009 73.8431 68.9008C75.015 67.4181 78.7059 61.1681 78.7059 58.952V58.8085C78.7059 58.4737 78.6023 58.378 78.2754 58.378C76.5695 58.378 70.3594 62.4915 69.0122 63.4959C66.8677 65.1062 63.5993 69.0124 63.5993 72.6157ZM41.2941 58.8085C41.2941 60.4666 44.722 66.7564 45.6467 67.9761C47.1694 69.969 50.5095 73.3332 53.8099 73.3332H55.8268C56.2174 73.3332 56.4007 72.9505 56.4007 72.6157C56.4007 68.9646 53.204 65.1062 51.0755 63.5517C49.6326 62.4994 48.4369 61.5428 46.7548 60.6739C46.1729 60.371 42.3304 58.37 41.8601 58.37C41.5811 58.37 41.2861 58.6251 41.2861 58.8005L41.2941 58.8085Z" fill="#71B46A"/>
<path fill-rule="evenodd" clip-rule="evenodd" d="M68.9244 24.7285C68.9244 25.6293 68.7251 27.2237 68.207 27.6064L68.3823 25.454C68.5896 22.9109 66.5568 20.2165 65.2972 19.0127C63.5674 17.3625 61.4628 16.8205 58.1385 16.8205C58.4255 16.4298 58.9118 16.2465 59.5735 16.2465H60.004C64.7312 16.2465 68.9244 20.0331 68.9244 24.7285ZM59.996 36.0884C65.8393 36.0884 71.0768 31.401 71.0768 25.5895V24.298C71.0768 21.492 68.9085 18.7576 67.4417 17.2828C65.7835 15.6167 62.8738 14.5166 59.5655 14.5166C54.0171 14.5166 48.6839 19.6505 48.9072 25.446C49.1383 31.401 53.9613 36.0884 59.996 36.0884Z" fill="#F7A92D"/>
<path fill-rule="evenodd" clip-rule="evenodd" d="M66.4772 37.9619C66.4772 40.465 69.1956 43.032 70.1203 44.8177C71.053 46.6193 73.3329 49.6087 75.9716 49.6087H77.263C78.4508 49.6087 80.8424 47.831 81.5439 47.1295C82.2694 46.4041 83.7362 43.7574 83.7362 42.4181V41.8442C83.7362 38.3764 81.2569 37.372 79.2162 35.8573C77.5102 34.5818 74.728 32.6367 71.9299 32.6367H71.4994C70.2877 32.6367 70.5986 33.0831 69.6579 33.3861C68.8049 33.6571 68.8528 34.0397 68.3027 34.6217C67.5693 35.387 66.4612 36.5349 66.4612 37.9619H66.4772ZM52.088 50.7567V50.0392C52.088 48.8992 53.5947 43.2791 53.9534 41.9877C54.6709 39.4287 56.05 37.3879 59.2786 37.3879H59.8526C63.5435 37.3879 64.4125 38.6156 65.4647 41.2702C65.6003 41.621 66.9076 48.9949 66.9076 49.4652V51.9126C66.9076 53.1004 65.7756 54.7187 65.0661 55.2528C61.3911 58.019 57.7321 57.461 54.2643 54.91C53.3555 54.2404 52.08 52.3351 52.08 50.7647L52.088 50.7567ZM36.2559 41.9877V42.1312C36.2559 46.0294 41.7645 51.4183 46.0693 49.0667C47.9745 48.0223 49.0188 45.9417 50.2943 44.2357C51.0756 43.1994 53.5229 39.8432 53.5229 38.4003V38.2568C53.5229 35.6979 50.5096 32.5012 48.0542 32.5012H47.3368C45.7584 32.5012 42.0355 35.2275 40.6245 36.0008C38.4083 37.2205 36.2559 38.6236 36.2559 41.9877ZM35.8255 32.9317C33.0194 32.9317 30.9866 29.6871 31.2177 26.61C31.425 23.8438 33.3622 20.4238 35.9689 20.4238H36.5429C38.6714 20.4238 41.621 21.4682 43.7973 21.9385C46.157 22.4567 47.6158 24.0431 47.6158 26.889V27.176C47.6158 30.5481 46.3244 30.9706 43.8531 31.7598C42.9443 32.0468 37.8822 32.9317 36.8219 32.9317H35.8175H35.8255ZM36.2559 13.8072C36.2559 16.5176 37.6829 18.2077 39.8592 18.686C41.4615 19.0367 44.5227 20.8543 46.3244 20.8543H46.4679C48.8674 20.8543 50.6371 18.1519 50.6371 15.6806C50.6371 15.1784 49.6486 13.305 49.258 13.034C48.8116 12.7231 47.6238 11.4555 47.1455 10.9772C45.9258 9.75753 44.3473 7.78051 42.1471 7.78051C40.3933 7.78051 39.07 8.77699 38.1532 9.68578C37.4916 10.3474 36.248 12.6274 36.248 13.8232L36.2559 13.8072ZM46.7628 4.74324C46.7628 2.54302 50.0871 0 52.662 0H53.6664C55.8108 0 57.7002 1.80163 58.043 3.67501C58.3857 5.53245 59.2786 8.90454 59.2786 10.4989C59.2786 12.3484 56.3131 14.6682 54.5274 14.6682H54.3839C52.3272 14.6682 50.6212 12.2846 49.7523 10.9613C48.9391 9.72564 46.7628 7.35003 46.7628 5.61217V4.75122V4.74324ZM60.865 10.2119V10.7859C60.865 12.5716 63.8863 14.6682 65.7597 14.6682H66.0467C67.6889 14.6682 69.5543 12.1411 70.3116 11.0171C71.037 9.93291 73.2452 7.27829 73.2452 5.89916V4.8947C73.2452 2.71839 69.9848 0.0079705 68.0636 0.0079705H66.7721C64.3885 0.0079705 62.5391 1.45087 62.1564 3.44383C61.8615 4.97442 60.873 8.80888 60.873 10.2119H60.865ZM72.8068 20.7029C70.6943 20.7029 67.9759 15.9516 70.758 13.1934C72.2089 11.7505 75.1186 7.90806 77.558 7.90806H78.132C81.3526 7.90806 84.8522 12.3324 83.4412 15.8002C82.6919 17.6337 81.4403 18.1838 79.543 18.8056C78.4748 19.1563 75.5571 20.7029 74.5367 20.7029H72.8068ZM72.3763 26.315C72.3763 25.0555 73.1336 24.1786 73.6678 23.4372C74.3055 22.5603 75.0708 22.3052 76.2586 22.0023C77.0877 21.787 76.9681 21.8269 77.9805 21.7073C78.5704 21.6356 78.8335 21.2131 79.4314 21.1413C80.6272 20.9978 81.9744 20.5594 82.8752 20.5594C86.2872 20.5594 88.6309 23.0067 88.6309 26.315V26.4585C88.6309 29.448 87.2677 32.7882 84.4616 32.7882H82.8752C80.8185 32.7882 77.853 31.9033 75.852 31.6083C73.8033 31.3054 72.3683 29.432 72.3683 27.0405V26.323L72.3763 26.315Z" fill="#FED319"/>
<path fill-rule="evenodd" clip-rule="evenodd" d="M87.7141 68.7972C87.9692 70.2481 88.1286 71.6431 88.3518 73.0542C88.583 74.4971 88.7026 75.932 88.9816 77.4546C89.1411 78.3554 89.2287 81.2492 90.0817 81.2492C90.4245 81.2492 99.074 76.8647 100.421 76.3386C101.226 76.0277 102.175 75.5334 103.084 75.1189C103.985 74.7043 103.809 73.3412 103.761 72.0417C103.666 69.6502 103.466 67.3304 103.466 64.7156V63.8547C103.466 63.1053 109.876 50.5178 110.665 49.1945C112.538 46.0456 112.483 44.9534 112.817 40.4175C113.057 37.2287 113.678 33.5856 113.678 30.349V29.4881C113.678 28.093 107.269 18.1999 106.169 16.4302C104.822 14.2619 103.634 12.1254 102.287 9.95707C101.226 8.25907 99.7276 4.75146 97.2803 4.75146H96.7063C94.7851 4.75146 93.2545 6.34583 93.2545 8.20327C93.2545 9.9491 97.5115 17.5781 98.4362 19.4196C98.9783 20.4958 103.905 29.9744 103.905 30.2055V30.349C103.905 31.0426 101.92 36.6229 101.601 37.8266C101.33 38.855 99.616 44.794 99.0102 45.0172L99.9509 38.273C99.8791 38.2571 99.1776 29.8707 99.074 29.2888C98.6674 27.0407 99.1457 27.24 97.9818 25.4942C97.4716 24.7289 96.3237 23.5969 95.1279 23.5969C94.825 23.5969 93.4299 24.2187 93.1429 24.4897C92.5769 25.0318 92.3059 25.255 92.0428 26.124C91.6362 27.4871 91.5087 29.5598 91.5246 31.21C91.5565 34.6458 91.0782 38.6876 91.0941 41.9959C91.1101 45.8144 89.7628 47.9827 88.9976 51.1157C88.3359 53.8101 86.9249 56.967 86.9249 60.2594V64.5721C86.9249 65.17 87.5546 67.8246 87.73 68.8052L87.7141 68.7972ZM88.7743 12.2211C88.7743 11.3203 89.5875 10.3716 90.5042 10.3557C90.5042 11.2645 90.2172 11.2405 90.2172 11.6471C90.2172 13.9749 94.7692 20.6553 94.9685 23.007C94.259 22.5287 88.7823 14.0945 88.7823 13.2255V12.2211H88.7743ZM91.0782 10.9296C91.0782 9.55848 91.708 8.1953 93.0951 8.1953C93.0393 8.90479 92.8081 8.72144 92.8081 9.34324V10.2042C92.8081 11.9181 99.9269 24.6332 100.724 28.0372C100.23 27.6785 91.0862 11.6312 91.0862 11.2166V10.9296H91.0782ZM16.406 42.1314C16.406 40.7284 17.4185 36.7743 17.7613 35.2916C18.2715 33.0834 18.5106 30.4367 19.1244 28.4517C19.6745 26.6581 20.1767 23.6527 20.5275 21.6518C20.958 19.1885 20.2644 16.3903 17.9924 16.3903H16.8445C14.0304 16.3903 13.5282 19.4994 12.8745 21.7713C12.165 24.2506 11.5911 26.5305 10.8895 28.9858C10.188 31.4571 9.47055 33.8407 8.78497 36.2322C8.3226 37.8505 6.91956 41.956 6.91956 43.5663V44.2838C6.91956 45.1926 9.48649 51.9129 9.98074 53.1565C11.0809 55.9307 11.894 59.3825 13.7833 61.2877C15.7922 63.3126 17.6496 65.3693 19.2918 67.721C19.8578 68.5341 24.1786 74.3536 24.1786 74.7681C24.1786 75.6769 23.7481 76.1871 23.7481 77.2155V77.6459C24.4177 77.8213 29.6473 80.7629 30.564 81.3289C31.6083 81.9667 36.5349 84.8365 37.5553 84.8365C38.3764 81.321 39.5722 75.3819 39.5722 71.3163V70.8858C39.5722 66.7405 33.4498 56.0024 31.7997 52.0484C30.6437 49.2662 29.5835 44.8418 28.6587 41.8125C28.2203 40.3856 27.5985 38.1056 27.0325 36.8222C25.0156 32.2065 20.1528 33.4979 20.1687 38.3846C20.1687 39.6282 21.0217 43.0163 21.2609 44.4592C21.5638 46.2688 21.9863 48.7879 22.5364 50.3743C23.0785 51.9527 24.2583 53.866 24.6091 55.3487C24.1307 55.1733 16.406 43.2873 16.406 42.5539V42.1234V42.1314ZM24.3141 21.859C24.3141 20.9821 23.7561 21.1017 23.7401 20.1371H24.3141C25.0395 20.1371 26.044 21.4684 26.044 22.441V23.3019C26.044 24.3144 24.8243 27.2878 24.5214 28.5315C24.2424 29.6794 23.4213 33.0116 22.7357 33.5059L22.5922 33.482L24.2902 23.1505L24.3141 21.859ZM20.8623 18.9812C20.8623 18.7819 21.0616 18.6942 21.2928 18.6942H21.4363C22.0342 18.6942 23.3096 20.0972 23.3096 20.8546V21.4285C23.3096 22.9432 19.1484 39.0383 18.7019 39.5485C18.7019 36.8062 19.7303 31.5687 20.2485 29.0177C20.6072 27.248 20.7347 25.6297 21.0855 23.8121C21.2609 22.9113 21.4283 22.1301 21.5558 21.2532C21.7233 20.0574 20.8623 19.5153 20.8623 18.9892V18.9812Z" fill="#CAC8C6"/>
<path fill-rule="evenodd" clip-rule="evenodd" d="M14.2457 85.1235C14.2457 87.1005 15.848 90.4407 17.267 90.4407H17.4105C18.9092 90.4407 20.2883 87.2041 20.2883 85.4105V84.98C20.2883 83.1465 18.9331 77.5024 17.841 77.5024C16.7488 77.5024 14.2457 83.1225 14.2457 85.1235ZM67.4816 112.594C67.4816 115.05 69.4745 117.234 70.758 118.525C71.4436 119.219 75.4374 122.081 76.402 122.081C76.6412 122.081 76.8724 121.666 76.976 121.507C76.976 118.231 76.2506 114.635 75.1584 112.395C74.2257 110.482 71.6987 107.7 69.068 107.7C68.0715 107.7 67.4816 111.207 67.4816 112.586V112.594ZM43.8849 122.081C44.7698 122.081 48.4767 119.179 49.2978 118.573C50.4298 117.736 52.5184 114.739 52.5184 112.881V111.159C52.5184 110.314 51.7292 107.708 50.932 107.708C48.3013 107.708 46.2765 110.187 45.2083 111.909C44.2437 113.447 43.1675 117.33 43.1675 119.785V121.22C43.1675 121.611 43.2392 121.619 43.311 121.937C43.7175 122.033 43.5581 122.081 43.8849 122.081ZM76.976 109.143C76.976 108.385 77.2391 106.408 77.9805 106.408H78.4109C81.6555 106.408 83.76 108.154 85.0595 110.115C85.8806 111.359 88.0489 115.648 88.0489 117.481C88.0489 117.76 87.7938 118.055 87.6184 118.055C85.7371 118.055 81.6874 116.214 80.5474 115.345C78.8972 114.101 76.976 111.957 76.976 109.135V109.143ZM32.6606 118.055C34.3267 118.055 38.488 116.086 39.5722 115.329C41.1905 114.189 43.024 112.012 43.024 109.286V108.856C43.024 107.963 42.8406 106.408 42.0195 106.408H40.5766C35.9211 106.408 32.9077 113.36 31.9431 117.481C32.1105 117.8 32.0707 118.055 32.5171 118.055H32.6606ZM24.7446 113.455H22.7277C22.3929 113.455 22.1537 113.216 22.1537 112.881C22.1537 111.757 25.1591 108.082 25.9324 107.309C27.3434 105.89 29.5994 104.256 32.3736 104.256H32.8041C33.8245 104.256 35.108 104.519 35.108 105.547V105.691C35.108 111.112 30.285 113.455 24.7446 113.455ZM84.8921 105.404C84.8921 111.072 89.6273 113.455 95.3989 113.455H97.1288C97.5194 113.455 97.5274 113.384 97.8463 113.312V112.738C97.8463 111.558 94.9286 108.17 94.1394 107.381C92.9277 106.177 90.6397 104.256 88.3518 104.256H87.9213C86.7973 104.256 84.9 104.391 84.9 105.404H84.8921ZM18.8454 108.856C23.0705 108.856 27.3354 105.938 27.3354 101.952C27.3354 101.059 24.8881 100.374 24.0271 100.374H23.4531C21.3486 100.374 18.686 102.143 17.4344 103.132C16.693 103.714 13.3767 107.014 13.3767 107.851C13.3767 108.688 16.6053 108.856 17.6895 108.856H18.8374H18.8454ZM92.8081 101.952V101.809C92.8081 100.979 95.1757 100.374 96.1164 100.374H96.6904C98.8188 100.374 101.21 102.08 102.502 103.044C103.156 103.538 106.615 106.95 106.615 107.556C106.615 108.943 103.259 108.848 101.864 108.848C97.1687 108.848 92.8001 106.392 92.8001 101.944L92.8081 101.952ZM103.49 91.206C103.985 90.7675 107.189 86.8534 107.189 86.4229C107.189 85.6656 106.615 84.98 106.615 83.832V82.8276C106.615 80.9861 108.106 78.5148 108.959 77.3988C109.493 76.6972 112.164 73.6201 112.945 73.6201C113.886 73.6201 114.093 77.5821 114.093 78.7938V78.9373C114.093 82.7479 112.379 85.8808 109.461 86.678C107.436 87.228 107.389 88.1129 106.241 89.6435C105.252 90.9509 104.407 91.8676 103.267 92.9997C98.6913 97.5755 94.2669 99.8395 88.0489 102.669C85.5776 103.801 81.5997 104.933 78.6102 105.603C76.7927 106.01 75.3498 106.273 73.4286 106.608C71.5472 106.934 69.7137 106.99 67.8164 107.325C61.9252 108.353 61.4309 106.137 61.4309 113.447C61.4309 117.593 61.5744 121.539 61.5744 125.812V129.694C61.5744 130.404 60.9925 130.985 60.283 130.985H59.709C57.6045 130.985 58.4176 127.47 58.4176 125.525C58.4176 123.173 58.4176 120.821 58.4176 118.478C58.4176 116.445 58.5611 113.886 58.5611 111.582C58.5611 108.728 58.2103 107.732 55.5398 107.556C46.4359 106.95 39.1258 105.539 32.1424 102.757C24.8323 99.8475 20.2883 96.6189 15.2182 91.493C14.2218 90.4885 12.9861 88.7267 12.181 87.4831C11.8461 86.957 10.5149 86.7258 9.81333 86.399C9.04803 86.0482 8.40231 85.4184 7.8124 84.8046C6.56082 83.5052 6.26586 81.7354 5.93902 79.6309C5.74769 78.3793 6.25789 73.6201 7.06304 73.6201C7.8682 73.6201 10.5627 76.6414 11.1207 77.335C12.157 78.6344 13.4007 80.6991 13.4007 82.9711V83.832C13.4007 84.693 13.0977 85.8489 12.8267 86.4229C16.1828 92.7685 24.617 98.0458 31.7359 100.884C34.6536 102.048 41.3658 104.152 44.9133 104.399C45.6866 104.455 47.5042 104.822 48.5246 104.957C49.7522 105.125 51.1234 105.101 52.367 105.292C53.7062 105.499 54.6071 105.547 56.2811 105.547C57.0863 105.547 57.724 105.507 58.3299 105.659C58.6807 105.747 59.8605 106.265 59.8764 106.265C60.5062 106.265 61.3512 105.547 63.3282 105.547C64.7472 105.547 66.1981 105.396 67.354 105.404C69.4108 105.404 72.8147 104.83 74.7758 104.487C79.5988 103.634 84.0949 102.582 88.0728 100.956C92.4972 99.1459 95.3511 97.6074 99.0022 95.0564C100.652 93.9084 102 92.5692 103.506 91.214L103.49 91.206ZM56.4007 98.5002C56.4007 99.983 56.8631 101.29 57.4131 102.239C57.6762 102.701 59.1669 104.543 59.717 104.543H60.1475C61.2316 104.543 63.3123 101.171 63.3123 99.6561V98.0777C63.3123 96.2362 61.0244 90.7436 59.8605 90.7436C59.2546 90.7436 57.8596 93.4461 57.5566 94.0519C56.9189 95.3115 56.4087 96.6189 56.4087 98.5082L56.4007 98.5002ZM68.6295 104.112C69.4665 104.112 70.742 102.175 71.1247 101.426C71.7146 100.254 71.8661 98.7713 71.595 97.2646C71.324 95.7101 69.0281 90.5922 68.0555 90.5922H67.912C66.7721 90.5922 65.1777 96.6428 65.1777 98.5002C65.1777 100.804 66.796 104.104 68.6295 104.104V104.112ZM48.3492 99.2177C48.3492 100.971 50.1269 104.104 51.6575 104.104C53.0366 104.104 54.8223 101.011 54.8223 99.0742V97.3523C54.8223 95.8137 53.0047 90.5922 52.088 90.5922C51.506 90.5922 49.7442 93.6294 49.521 94.2034C48.9072 95.7978 48.3492 96.8341 48.3492 99.0742V99.2177ZM73.0937 97.3523C73.0937 98.6437 73.6438 100.493 74.154 101.322C74.5526 101.96 75.9078 103.682 76.689 103.682C77.9326 103.682 79.7104 100.286 79.7104 98.7952V98.0777C79.7104 95.726 76.4818 89.5957 75.2541 89.5957C74.3533 89.5957 73.0937 94.8013 73.0937 96.0688V97.3602V97.3523ZM43.4545 103.674C44.0842 103.674 45.6866 101.777 45.9975 101.187C46.5874 100.071 46.9063 98.851 46.9063 97.2088V95.9173C46.9063 94.6259 45.6786 89.5877 44.7459 89.5877C44.2995 89.5877 42.3225 92.6409 42.0116 93.183C41.3977 94.2433 40.4331 96.1406 40.4331 97.7907V98.6517C40.4331 100.493 42.1551 103.682 43.4545 103.682V103.674ZM99.9987 97.9262C99.9987 100.103 103.578 102.813 105.898 102.813H107.915C109.318 102.813 114.962 100.9 114.962 99.9351V99.7917C114.962 99.13 111.566 97.1769 110.84 96.866C109.142 96.1485 107.676 95.4789 105.324 95.4789H105.18C103.458 95.4789 99.9987 96.7624 99.9987 97.9262ZM13.8152 102.813H12.8107C11.0649 102.813 5.0382 101.035 5.0382 99.9351C5.0382 98.4922 11.8382 95.4789 14.2457 95.4789H15.3936C16.7488 95.4789 20.0013 96.9457 20.0013 97.7828V98.2132C20.0013 100.318 16.3423 102.813 13.8152 102.813ZM80.4278 96.0529C80.4278 98.0458 82.3889 101.657 83.7361 101.657H83.8796C85.5378 101.657 86.901 98.1415 86.901 96.0529C86.901 93.7889 83.6166 87.7143 82.4367 87.7143H82.2932C81.5758 87.7143 80.4199 92.346 80.4199 93.3265V96.0608L80.4278 96.0529ZM36.1124 101.665C38.0655 101.665 39.7077 97.6472 39.7077 95.0484V94.9049C39.7077 93.3106 38.6873 87.7143 37.6908 87.7143C36.5588 87.7143 33.2346 93.6294 33.2346 95.7659V96.9138C33.2346 98.4843 34.9485 101.657 35.9689 101.657H36.1124V101.665ZM29.4958 99.0742C31.2576 99.0742 32.9476 95.152 32.9476 92.7445V92.6011C32.9476 90.9589 31.9112 85.1235 30.9307 85.1235C30.1574 85.1235 28.2681 88.1528 27.9094 88.8623C27.16 90.3371 26.4745 91.8118 26.4745 94.044C26.4745 95.726 28.2203 99.0742 29.4958 99.0742ZM93.5256 88.8623C93.5256 91.3096 95.3272 95.1919 97.2643 95.1919C98.3086 95.1919 99.9987 92.1467 99.9987 90.8791V88.8623C99.9987 87.0128 96.499 81.2412 95.391 81.2412C94.6894 81.2412 93.5176 86.6062 93.5176 87.8578V88.8623H93.5256ZM22.8792 95.1919C21.4203 95.1919 20.0013 91.764 20.0013 90.0182C20.0013 86.8055 22.7436 82.4928 24.6091 81.2492C25.6534 81.9507 26.4824 86.1678 26.4824 88.1528V88.5833C26.4824 90.4248 26.2353 91.4611 25.5736 92.7047C25.191 93.4381 23.8119 95.1919 22.8871 95.1919H22.8792ZM111.94 94.7614C114.284 94.7614 120 91.6843 120 90.1617C120 89.221 115.241 88.0013 113.957 88.0013H112.227C110.785 88.0013 109.254 88.4557 108.369 89.0376C107.755 89.4442 106.041 90.7994 106.041 91.5966C106.041 92.6648 109.047 94.7614 110.506 94.7614H111.948H111.94ZM0 90.3052C0 90.911 2.86189 92.8801 3.45181 93.183C4.85485 93.9005 6.04265 94.7614 8.20302 94.7614H9.49446C10.9533 94.7614 13.9587 92.896 13.9587 91.5966V91.4531C13.9587 90.2494 10.4431 88.0013 8.92048 88.0013H6.32964C4.91065 88.0013 0 89.2051 0 90.1617V90.3052ZM89.2048 84.98C87.9771 85.8011 87.0843 90.5045 87.0365 92.7445C86.9966 95.0245 88.9417 99.0742 90.4962 99.0742H90.6397C91.7638 99.0742 93.5176 95.9572 93.5176 94.4744V92.6011C93.5176 90.5603 90.4883 85.8409 89.2048 84.98ZM99.7117 84.8365C99.7117 86.8693 100.987 90.4407 102.733 90.4407C104.2 90.4407 105.754 87.3237 105.754 85.267V84.8365C105.754 82.7957 103.427 77.5343 101.872 77.5024C101.266 79.7823 99.7117 81.3608 99.7117 84.8365Z" fill="#71B46A"/>
<path fill-rule="evenodd" clip-rule="evenodd" d="M10.9693 188.319C10.9693 189.387 10.5707 190.216 9.77355 190.774C8.97636 191.348 7.81247 191.635 6.26594 191.635C3.49174 191.635 1.88143 190.631 1.41907 188.622L3.63524 188.255C3.77873 188.845 4.08166 189.26 4.51214 189.515C4.94262 189.786 5.54847 189.913 6.32971 189.913C7.11095 189.913 7.73276 189.786 8.13135 189.547C8.52994 189.308 8.73721 188.941 8.73721 188.447C8.73721 188.144 8.64155 187.889 8.46617 187.681C8.29078 187.474 8.01975 187.315 7.68493 187.171C7.50955 187.107 7.27039 187.028 6.95152 186.948C6.63264 186.868 6.23405 186.772 5.75574 186.677C5.19771 186.549 4.76724 186.438 4.46431 186.342C4.14543 186.262 3.89033 186.167 3.71495 186.087C3.52363 186.007 3.34825 185.912 3.17287 185.8C2.77428 185.561 2.47135 185.258 2.26408 184.859C2.04087 184.477 1.92926 183.998 1.92926 183.408C1.92926 182.42 2.29597 181.655 3.04532 181.128C3.79467 180.602 4.87884 180.347 6.29783 180.347C7.71681 180.347 8.67344 180.554 9.35901 180.985C10.0446 181.415 10.4751 182.117 10.6823 183.089L8.45022 183.392C8.33862 182.93 8.09946 182.563 7.76465 182.324C7.41389 182.085 6.90369 181.973 6.25 181.973C5.56442 181.973 5.03828 182.085 4.68752 182.292C4.33676 182.516 4.16137 182.85 4.16137 183.281C4.16137 183.568 4.24109 183.807 4.38458 183.982C4.52808 184.158 4.75129 184.317 5.03828 184.445C5.30932 184.572 5.89923 184.732 6.80802 184.923C7.33416 185.035 7.79653 185.146 8.16324 185.242C8.54589 185.353 8.84881 185.449 9.07203 185.529C9.31118 185.64 9.51845 185.736 9.69383 185.848C9.86921 185.959 10.0127 186.071 10.1562 186.198C10.4272 186.454 10.6186 186.757 10.7621 187.107C10.9055 187.458 10.9693 187.857 10.9693 188.319Z" fill="#1F2023"/>
<path fill-rule="evenodd" clip-rule="evenodd" d="M14.5886 191.635C13.7754 191.635 13.1377 191.412 12.6753 190.965C12.213 190.519 11.9897 189.897 11.9897 189.1C11.9897 188.223 12.2767 187.569 12.8507 187.107C13.4087 186.66 14.2378 186.421 15.322 186.405L17.1395 186.373V185.943C17.1395 185.385 17.0439 184.986 16.8526 184.715C16.6612 184.444 16.3424 184.317 15.9119 184.317C15.4814 184.317 15.1944 184.412 15.019 184.588C14.8277 184.763 14.7002 185.066 14.6523 185.497L12.3724 185.401C12.6594 183.727 13.8711 182.898 15.9916 182.898C17.0598 182.898 17.873 183.153 18.4629 183.679C19.0368 184.205 19.3238 184.954 19.3238 185.911V188.988C19.3238 189.451 19.3717 189.785 19.4833 189.961C19.5949 190.136 19.7703 190.232 20.0094 190.232C20.1848 190.232 20.3442 190.216 20.5037 190.184V191.364C20.2326 191.443 19.9935 191.491 19.8021 191.523C19.6108 191.555 19.3717 191.571 19.1006 191.571C18.5426 191.571 18.144 191.428 17.873 191.156C17.6179 190.885 17.4584 190.503 17.4106 189.977H17.3628C17.0598 190.535 16.6772 190.949 16.2148 191.22C15.7525 191.491 15.2104 191.635 14.5886 191.635ZM17.1316 187.569L15.9996 187.585C15.4894 187.617 15.1227 187.681 14.9154 187.761C14.7081 187.84 14.5487 187.984 14.4371 188.175C14.3255 188.366 14.2617 188.621 14.2617 188.924C14.2617 189.323 14.3574 189.61 14.5487 189.817C14.7241 190.009 14.9792 190.104 15.2821 190.104C15.6169 190.104 15.9358 190.009 16.2228 189.817C16.4938 189.642 16.717 189.387 16.8924 189.052C17.0519 188.717 17.1316 188.366 17.1316 188V187.569ZM17.1794 182.26C16.9721 182.26 16.7649 182.212 16.5576 182.132C16.3503 182.037 16.1271 181.941 15.9199 181.829C15.6807 181.702 15.4575 181.59 15.2502 181.479C15.043 181.367 14.8516 181.303 14.6763 181.303C14.469 181.303 14.2936 181.367 14.182 181.495C14.0704 181.606 13.9907 181.861 13.911 182.26H12.8427C12.8906 181.367 13.0819 180.761 13.3848 180.458C13.6877 180.139 14.1023 179.98 14.5965 179.98C14.8357 179.98 15.0749 180.044 15.314 180.155C15.5532 180.267 15.7923 180.379 16.0315 180.506C16.2387 180.618 16.4301 180.729 16.6054 180.809C16.7808 180.889 16.9562 180.937 17.0997 180.937C17.307 180.937 17.4664 180.873 17.578 180.745C17.6896 180.618 17.7853 180.363 17.865 179.98H18.9173C18.8854 180.793 18.7259 181.383 18.423 181.734C18.1201 182.085 17.7056 182.26 17.1794 182.26Z" fill="#1F2023"/>
<path fill-rule="evenodd" clip-rule="evenodd" d="M29.5756 187.25C29.5756 188.621 29.193 189.689 28.4277 190.471C27.6783 191.252 26.626 191.635 25.2868 191.635C23.9475 191.635 22.943 191.252 22.1937 190.471C21.4443 189.689 21.0776 188.605 21.0776 187.25C21.0776 185.895 21.4443 184.843 22.1937 184.061C22.943 183.28 23.9953 182.897 25.3346 182.897C26.6739 182.897 27.774 183.264 28.4914 184.014C29.2089 184.763 29.5756 185.847 29.5756 187.25ZM27.2797 187.25C27.2797 186.246 27.1203 185.528 26.7855 185.082C26.4666 184.619 25.9883 184.396 25.3665 184.396C24.7128 184.396 24.2026 184.635 23.8678 185.114C23.533 185.592 23.3735 186.309 23.3735 187.25C23.3735 188.191 23.533 188.908 23.8678 189.402C24.1867 189.897 24.649 190.136 25.2708 190.136C25.9405 190.136 26.4507 189.897 26.7855 189.418C27.1203 188.94 27.2797 188.223 27.2797 187.25Z" fill="#1F2023"/>
<path fill-rule="evenodd" clip-rule="evenodd" d="M37.9779 187.314V191.476H35.682V180.506H41.1666C42.474 180.506 43.4785 180.793 44.1959 181.351C44.8974 181.909 45.2482 182.723 45.2482 183.775C45.2482 184.54 45.025 185.21 44.5945 185.768C44.164 186.326 43.5741 186.692 42.8407 186.868L45.8062 191.476H43.2234L40.6724 187.314H37.9779ZM42.9443 183.87C42.9443 183.344 42.7849 182.962 42.4501 182.691C42.1153 182.42 41.6051 182.292 40.9354 182.292H37.9859V185.529H40.9833C41.637 185.529 42.1153 185.385 42.4501 185.098C42.7849 184.795 42.9443 184.397 42.9443 183.87Z" fill="#1F2023"/>
<path fill-rule="evenodd" clip-rule="evenodd" d="M49.1943 191.635C48.3812 191.635 47.7434 191.411 47.281 190.965C46.8187 190.519 46.5955 189.897 46.5955 189.1C46.5955 188.223 46.8824 187.569 47.4564 187.107C48.0144 186.66 48.8435 186.421 49.9277 186.405L51.7453 186.373V185.943C51.7453 185.385 51.6496 184.986 51.4423 184.715C51.251 184.444 50.9321 184.316 50.5017 184.316C50.1031 184.316 49.8001 184.412 49.6248 184.587C49.4334 184.763 49.3059 185.066 49.2581 185.496L46.9781 185.401C47.2651 183.727 48.4768 182.897 50.5973 182.897C51.6655 182.897 52.4787 183.153 53.0686 183.679C53.6426 184.205 53.9296 184.954 53.9296 185.911V188.988C53.9296 189.45 53.9774 189.785 54.089 189.96C54.2006 190.136 54.376 190.232 54.6151 190.232C54.7905 190.232 54.9499 190.216 55.1094 190.184V191.364C54.8383 191.443 54.5992 191.491 54.4079 191.523C54.2165 191.555 53.9774 191.571 53.7063 191.571C53.1483 191.571 52.7497 191.427 52.4787 191.156C52.2236 190.885 52.0641 190.503 52.0163 189.976H51.9685C51.6655 190.534 51.267 190.949 50.8046 191.22C50.3422 191.491 49.8161 191.635 49.1943 191.635ZM51.7453 187.569L50.6133 187.585C50.1031 187.617 49.7364 187.681 49.5291 187.76C49.3218 187.84 49.1624 187.983 49.0508 188.175C48.9392 188.366 48.8754 188.621 48.8754 188.924C48.8754 189.323 48.9711 189.61 49.1624 189.817C49.3378 190.008 49.5929 190.104 49.8958 190.104C50.2306 190.104 50.5495 190.008 50.8365 189.817C51.1075 189.642 51.3307 189.387 51.4902 189.052C51.6655 188.717 51.7453 188.366 51.7453 187.999V187.569Z" fill="#1F2023"/>
<path fill-rule="evenodd" clip-rule="evenodd" d="M58.6807 184.524V191.476H56.4965V184.524H55.2688V183.057H56.4965V182.181C56.4965 181.415 56.7037 180.841 57.1023 180.475C57.5009 180.108 58.1227 179.917 58.9518 179.917C59.3823 179.917 59.8446 179.964 60.3389 180.044V181.463C60.1316 181.415 59.9084 181.383 59.7011 181.383C59.3344 181.383 59.0634 181.463 58.904 181.607C58.7605 181.75 58.6807 182.021 58.6807 182.388V183.057H60.3389V184.524H58.6807Z" fill="#1F2023"/>
<path fill-rule="evenodd" clip-rule="evenodd" d="M63.3682 191.635C62.5551 191.635 61.9173 191.411 61.455 190.965C60.9926 190.519 60.7694 189.897 60.7694 189.1C60.7694 188.223 61.0564 187.569 61.6304 187.107C62.1884 186.66 63.0175 186.421 64.1016 186.405L65.9192 186.373V185.943C65.9192 185.385 65.8235 184.986 65.6163 184.715C65.4249 184.444 65.1061 184.316 64.6756 184.316C64.277 184.316 63.9741 184.412 63.7987 184.587C63.6074 184.763 63.4798 185.066 63.432 185.496L61.1521 185.401C61.439 183.727 62.6508 182.897 64.7713 182.897C65.8395 182.897 66.6526 183.153 67.2425 183.679C67.8165 184.205 68.1035 184.954 68.1035 185.911V188.988C68.1035 189.45 68.1513 189.785 68.2629 189.96C68.3745 190.136 68.5499 190.232 68.7891 190.232C68.9645 190.232 69.1239 190.216 69.2833 190.184V191.364C69.0123 191.443 68.7731 191.491 68.5818 191.523C68.3905 191.555 68.1513 191.571 67.8803 191.571C67.3223 191.571 66.9237 191.427 66.6526 191.156C66.3975 190.885 66.2381 190.503 66.1902 189.976H66.1424C65.8395 190.534 65.4409 190.949 64.9785 191.22C64.5162 191.491 63.99 191.635 63.3682 191.635ZM65.9192 187.569L64.7872 187.585C64.277 187.617 63.9103 187.681 63.703 187.76C63.4958 187.84 63.3363 187.983 63.2247 188.175C63.1131 188.366 63.0493 188.621 63.0493 188.924C63.0493 189.323 63.145 189.61 63.3363 189.817C63.5117 190.008 63.7668 190.104 64.0697 190.104C64.4046 190.104 64.7234 190.008 65.0104 189.817C65.2815 189.642 65.5047 189.387 65.6641 189.052C65.8395 188.717 65.9192 188.366 65.9192 187.999V187.569Z" fill="#1F2023"/>
<path fill-rule="evenodd" clip-rule="evenodd" d="M72.0893 187.681C72.0893 188.494 72.2488 189.115 72.5517 189.546C72.8546 189.961 73.2851 190.168 73.8431 190.168C74.2258 190.168 74.5447 190.088 74.7838 189.913C75.023 189.737 75.1984 189.498 75.31 189.163L77.3667 189.339C76.7768 190.869 75.5651 191.635 73.7315 191.635C72.472 191.635 71.4994 191.252 70.8139 190.503C70.1283 189.753 69.7935 188.669 69.7935 187.218C69.7935 185.767 70.1442 184.763 70.8298 184.014C71.5154 183.264 72.5039 182.897 73.7634 182.897C75.023 182.897 75.8999 183.296 76.5376 184.093C77.1754 184.906 77.4943 186.07 77.4943 187.617V187.681H72.0893ZM75.3737 186.309C75.3259 185.624 75.1665 185.114 74.8795 184.779C74.6084 184.444 74.2258 184.269 73.7315 184.269C73.2373 184.269 72.8228 184.444 72.5517 184.811C72.2807 185.177 72.1212 185.672 72.1053 186.309H75.3737Z" fill="#1F2023"/>
<path d="M81.3367 179.917H79.1525V191.476H81.3367V179.917Z" fill="#1F2023"/>
<path d="M91.5646 186.39H87.5149V188.287H91.5646V186.39Z" fill="#1F2023"/>
<path fill-rule="evenodd" clip-rule="evenodd" d="M99.9907 187.314V191.476H97.6948V180.506H103.179C104.487 180.506 105.491 180.793 106.209 181.351C106.91 181.909 107.261 182.723 107.261 183.775C107.261 184.54 107.038 185.21 106.607 185.768C106.177 186.326 105.587 186.692 104.854 186.868L107.819 191.476H105.236L102.685 187.314H99.9907ZM104.949 183.87C104.949 183.344 104.79 182.962 104.455 182.691C104.12 182.42 103.61 182.292 102.94 182.292H99.9907V185.529H102.988C103.642 185.529 104.12 185.385 104.455 185.098C104.79 184.795 104.949 184.397 104.949 183.87Z" fill="#1F2023"/>
<path fill-rule="evenodd" clip-rule="evenodd" d="M111.247 185.002V191.476H109.206V180.506H111.821L116.684 189.02C116.588 188.239 116.54 187.522 116.54 186.884V180.506H118.581V191.476H115.887L111.103 183.025C111.151 183.44 111.183 183.807 111.215 184.142C111.231 184.476 111.247 184.763 111.247 185.002Z" fill="#1F2023"/>
</svg>
