<svg xmlns="http://www.w3.org/2000/svg" width="187" height="100" fill="none" viewBox="0 0 187 100"><path fill="#71B46A" fill-rule="evenodd" d="M44.7082 42.6633V62.2725C44.7082 64.0253 44.1361 67.7378 45.8036 67.7378H45.9132C47.4895 67.7378 46.8991 63.7028 46.8991 62.0413V42.6633H44.7021H44.7082ZM48.5546 55.4379C48.5546 55.6265 48.7006 55.8456 48.7737 55.9856C51.0559 55.9856 51.488 56.0587 53.3139 55.1458C54.3241 54.6406 55.7118 53.4417 56.3751 52.6018C57.2698 51.4698 60.0876 46.6983 60.0876 45.0064V44.8968C60.0876 44.6412 60.0085 44.5682 59.759 44.5682C58.4566 44.5682 53.7155 47.7086 52.687 48.4754C51.0498 49.7048 48.5546 52.687 48.5546 55.4379ZM31.5258 44.9029C31.5258 46.1688 34.1428 50.9707 34.8488 51.9019C36.0112 53.4234 38.5612 55.9917 41.0809 55.9917H42.6206C42.9189 55.9917 43.0588 55.6996 43.0588 55.444C43.0588 52.6566 40.6183 49.7109 38.9934 48.5241C37.8918 47.7208 36.9789 46.9904 35.6947 46.3271C35.2504 46.0958 32.317 44.5682 31.9579 44.5682C31.7449 44.5682 31.5197 44.7629 31.5197 44.8968L31.5258 44.9029Z" clip-rule="evenodd"/><path fill="#F7A92D" fill-rule="evenodd" d="M52.62 18.885C52.62 19.5728 52.4679 20.79 52.0723 21.0821L52.2062 19.4389C52.3644 17.4974 50.8125 15.4403 49.8509 14.5213C48.5302 13.2615 46.9235 12.8477 44.3856 12.8477C44.6047 12.5495 44.9759 12.4095 45.4811 12.4095H45.8097C49.4188 12.4095 52.62 15.3003 52.62 18.885ZM45.8097 27.5577C50.2708 27.5577 54.2694 23.9791 54.2694 19.5423V18.5564C54.2694 16.4141 52.614 14.3266 51.4941 13.2007C50.2282 11.9287 48.0068 11.0888 45.4811 11.0888C41.2452 11.0888 37.1736 15.0082 37.344 19.4328C37.5205 23.9791 41.2026 27.5577 45.8097 27.5577Z" clip-rule="evenodd"/><path fill="#FED319" fill-rule="evenodd" d="M50.7516 28.9818C50.7516 30.8928 52.827 32.8525 53.533 34.2158C54.245 35.5913 55.9856 37.8735 58.0001 37.8735H58.9861C59.8929 37.8735 61.7187 36.5163 62.2543 35.9808C62.8081 35.4269 63.9279 33.4064 63.9279 32.3839V31.9457C63.9279 29.2983 62.0352 28.5314 60.4771 27.3751C59.1747 26.4013 57.0507 24.9163 54.9145 24.9163H54.5858C53.6608 24.9163 53.8981 25.2571 53.18 25.4884C52.5288 25.6953 52.5653 25.9875 52.1453 26.4317C51.5854 27.016 50.7395 27.8924 50.7395 28.9818H50.7516ZM39.7663 38.756V38.2083C39.7663 37.338 40.9166 33.0473 41.1904 32.0613C41.7382 30.1077 42.7911 28.5497 45.2559 28.5497H45.6941C48.512 28.5497 49.1753 29.4869 49.9787 31.5136C50.0822 31.7814 51.0803 37.411 51.0803 37.7701V39.6385C51.0803 40.5453 50.2161 41.7808 49.6744 42.1885C46.8687 44.3004 44.0752 43.8744 41.4278 41.9268C40.734 41.4156 39.7602 39.961 39.7602 38.7621L39.7663 38.756ZM27.6855 32.1648C27.6855 35.1409 31.8909 39.2551 35.1774 37.4536C36.632 36.6563 37.4293 35.0679 38.403 33.7654C38.9995 32.9743 40.8679 30.412 40.8679 29.3104V29.2009C40.8679 27.2473 38.5673 24.8068 36.6928 24.8068H36.1451C34.9401 24.8068 32.0979 26.8882 31.0206 27.4785C29.3287 28.4097 27.6855 29.4809 27.6855 32.0492V32.1648ZM27.3507 25.1415C25.2085 25.1415 23.6565 22.6645 23.833 20.3153C23.9912 18.2034 25.4702 15.5925 27.4603 15.5925H27.8985C29.5235 15.5925 31.7753 16.3898 33.4368 16.7488C35.2383 17.1444 36.352 18.3555 36.352 20.5283V20.7474C36.352 23.3218 35.3661 23.6443 33.4794 24.2468C32.7856 24.4659 28.9209 25.1415 28.1115 25.1415H27.3447H27.3507ZM27.6855 10.541C27.6855 12.6103 28.7749 13.9006 30.4364 14.2657C31.6597 14.5335 33.9967 15.9211 35.3722 15.9211H35.4817C37.3136 15.9211 38.6647 13.8579 38.6647 11.9713C38.6647 11.5878 37.9101 10.1576 37.6118 9.9507C37.271 9.71334 36.3642 8.74566 35.999 8.3805C35.0679 7.44933 33.8628 5.93999 32.1831 5.93999C30.8441 5.93999 29.8339 6.70075 29.134 7.39456C28.6288 7.8997 27.6794 9.64031 27.6794 10.5532L27.6855 10.541ZM35.7008 3.6212C35.7008 1.94145 38.2387 0 40.2045 0H40.9713C42.6085 0 44.0509 1.37545 44.3126 2.80567C44.5743 4.22372 45.2559 6.79812 45.2559 8.01534C45.2559 9.4273 42.9919 11.1983 41.6286 11.1983H41.5191C39.9489 11.1983 38.6465 9.37861 37.9831 8.36833C37.3623 7.42499 35.7008 5.61134 35.7008 4.28458V3.6212ZM46.467 7.79624V8.23443C46.467 9.59771 48.7737 11.1983 50.2039 11.1983H50.423C51.6767 11.1983 53.1008 9.26906 53.679 8.41093C54.2328 7.58323 55.9187 5.55657 55.9187 4.50368V3.73684C55.9187 2.07534 53.4295 0.00608736 51.9628 0.00608736H50.9768C49.1571 0.00608736 47.7451 1.10766 47.453 2.62918C47.2278 3.7977 46.4731 6.72509 46.4731 7.79624H46.467ZM55.584 15.8116C53.9712 15.8116 51.8958 12.1843 54.0198 10.0785C55.1275 8.97693 57.3489 6.04345 59.2112 6.04345H59.6494C62.1082 6.04345 64.78 9.42122 63.7028 12.0687C63.1307 13.4684 62.1752 13.8884 60.7267 14.3631C59.9111 14.6309 57.6836 15.8116 56.9046 15.8116H55.584ZM55.2553 20.0901C55.2553 19.1285 55.8335 18.459 56.2413 17.893C56.7281 17.2235 57.3124 17.0288 58.2192 16.7975C58.8522 16.6332 58.7609 16.6636 59.5338 16.5723C59.9842 16.5176 60.185 16.195 60.6415 16.1402C61.5544 16.0307 62.5829 15.6959 63.2707 15.6959C65.8755 15.6959 67.6648 17.5644 67.6648 20.0901V20.1996C67.6648 22.4819 66.6241 25.032 64.4818 25.032H63.2707C61.7005 25.032 59.4364 24.3564 57.9088 24.1312C56.3447 23.8999 55.2492 22.4697 55.2492 20.6439V20.0962L55.2553 20.0901Z" clip-rule="evenodd"/><path fill="#CAC8C6" fill-rule="evenodd" d="M66.9649 52.5227C67.1596 53.6303 67.2813 54.6954 67.4517 55.7726C67.6282 56.8742 67.7195 57.9697 67.9325 59.1321C68.0543 59.8199 68.1212 62.0291 68.7724 62.0291C69.0341 62.0291 75.6375 58.6818 76.666 58.2801C77.2807 58.0427 78.005 57.6654 78.6988 57.3489C79.3865 57.0324 79.2526 55.9917 79.2161 54.9997C79.1431 53.1739 78.9909 51.4028 78.9909 49.4066V48.7493C78.9909 48.1772 83.8841 38.5673 84.4866 37.5571C85.9168 35.1531 85.8742 34.3193 86.1299 30.8563C86.3124 28.4219 86.7872 25.6406 86.7872 23.1696V22.5123C86.7872 21.4473 81.894 13.8945 81.0541 12.5434C80.0255 10.888 79.1187 9.25689 78.0902 7.60149C77.2807 6.30516 76.1365 3.62729 74.2681 3.62729H73.8299C72.3632 3.62729 71.1947 4.8445 71.1947 6.26256C71.1947 7.5954 74.4446 13.4198 75.1506 14.8256C75.5645 15.6473 79.3256 22.8836 79.3256 23.0601V23.1696C79.3256 23.6991 77.8102 27.9593 77.5668 28.8783C77.3598 29.6634 76.0513 34.1976 75.5888 34.368L76.307 29.2192C76.2522 29.207 75.7166 22.8045 75.6375 22.3602C75.3271 20.6439 75.6923 20.7961 74.8037 19.4632C74.4142 18.8789 73.5378 18.0147 72.6249 18.0147C72.3936 18.0147 71.3286 18.4894 71.1095 18.6964C70.6774 19.1102 70.4704 19.2806 70.2696 19.944C69.9592 20.9847 69.8618 22.5671 69.874 23.8269C69.8983 26.45 69.5332 29.5356 69.5453 32.0613C69.5575 34.9766 68.529 36.632 67.9447 39.0238C67.4396 41.0809 66.3623 43.491 66.3623 46.0045V49.2971C66.3623 49.7535 66.8431 51.7802 66.977 52.5288L66.9649 52.5227ZM67.7804 9.32993C67.7804 8.6422 68.4012 7.91796 69.1011 7.90579C69.1011 8.5996 68.882 8.58134 68.882 8.89173C68.882 10.6689 72.3571 15.769 72.5093 17.5644C71.9676 17.1992 67.7865 10.7601 67.7865 10.0968V9.32993H67.7804ZM69.5332 8.34399C69.5332 7.29718 70.014 6.25647 71.073 6.25647C71.0303 6.79813 70.8539 6.65815 70.8539 7.13286V7.79015C70.8539 9.09865 76.2887 18.8059 76.8973 21.4047C76.52 21.1308 69.5393 8.87956 69.5393 8.56308V8.34399H69.5332ZM12.5251 32.1648C12.5251 31.0937 13.298 28.075 13.5597 26.943C13.9492 25.2571 14.1318 23.2366 14.6004 21.7211C15.0204 20.3518 15.4038 18.0573 15.6716 16.5297C16.0002 14.6491 15.4707 12.5129 13.7362 12.5129H12.8598C10.7114 12.5129 10.328 14.8865 9.82896 16.621C9.2873 18.5138 8.8491 20.2544 8.31353 22.1289C7.77796 24.0156 7.23021 25.8353 6.70681 27.6611C6.35382 28.8966 5.28268 32.0309 5.28268 33.2603V33.808C5.28268 34.5019 7.24238 39.6324 7.61972 40.5818C8.4596 42.6998 9.08038 45.335 10.5228 46.7896C12.0565 48.3355 13.4745 49.9057 14.7282 51.7011C15.1603 52.3218 18.459 56.7647 18.459 57.0811C18.459 57.7749 18.1303 58.1644 18.1303 58.9496V59.2782C18.6416 59.4121 22.634 61.6578 23.34 62.09C24.1373 62.5768 27.8985 64.7678 28.6775 64.7678C29.3043 62.0839 30.2173 57.5498 30.2173 54.4459V54.1172C30.2173 50.9525 25.5432 42.7545 24.2833 39.7359C23.4009 37.6118 22.5914 34.2341 21.8854 31.9214C21.5507 30.832 21.076 29.0914 20.6439 28.1115C19.1041 24.5877 15.3916 25.5736 15.4038 29.3044C15.4038 30.2538 16.055 32.8404 16.2376 33.9419C16.4688 35.3235 16.7914 37.2467 17.2113 38.4578C17.6252 39.6628 18.5259 41.1235 18.7937 42.2555C18.4286 42.1216 12.5312 33.0473 12.5312 32.4874V32.1587L12.5251 32.1648ZM18.5685 16.688C18.5685 16.0185 18.1425 16.1098 18.1303 15.3734H18.5685C19.1224 15.3734 19.8892 16.3897 19.8892 17.1322V17.7895C19.8892 18.5625 18.958 20.8326 18.7268 21.782C18.5138 22.6584 17.8869 25.2024 17.3635 25.5797L17.2539 25.5614L18.5503 17.6739L18.5685 16.688ZM15.9272 14.4909C15.9272 14.3388 16.0793 14.2718 16.2558 14.2718H16.3654C16.8218 14.2718 17.7956 15.343 17.7956 15.9211V16.3593C17.7956 17.5157 14.6187 29.8034 14.2779 30.1929C14.2779 28.0993 15.063 24.1008 15.4586 22.1532C15.7324 20.8021 15.8298 19.5667 16.0976 18.1791C16.2315 17.4913 16.3593 16.8949 16.4567 16.2254C16.5845 15.3125 15.9272 14.8987 15.9272 14.497V14.4909Z" clip-rule="evenodd"/><path fill="#71B46A" fill-rule="evenodd" d="M10.8758 64.993C10.8758 66.5023 12.0991 69.0524 13.1824 69.0524H13.2919C14.4361 69.0524 15.489 66.5815 15.489 65.2121V64.8835C15.489 63.4837 14.4544 59.1747 13.6206 59.1747C12.7868 59.1747 10.8758 63.4654 10.8758 64.993ZM51.5185 85.9595C51.5185 87.834 53.04 89.5015 54.0198 90.4875C54.5432 91.017 57.5924 93.2019 58.3288 93.2019C58.5113 93.2019 58.6878 92.8854 58.767 92.7637C58.767 90.2623 58.2131 87.5175 57.3793 85.8073C56.6673 84.3467 54.738 82.2226 52.7296 82.2226C51.9688 82.2226 51.5185 84.9005 51.5185 85.9534V85.9595ZM33.5037 93.2019C34.1793 93.2019 37.0093 90.9865 37.6362 90.524C38.5004 89.885 40.0949 87.5966 40.0949 86.1786V84.864C40.0949 84.2189 39.4924 82.2287 38.8838 82.2287C36.8754 82.2287 35.3296 84.1215 34.514 85.4361C33.7776 86.6107 32.956 89.5746 32.956 91.4491V92.5446C32.956 92.8428 33.0108 92.8489 33.0655 93.0923C33.3759 93.1654 33.2542 93.2019 33.5037 93.2019ZM58.773 83.3242C58.773 82.746 58.9739 81.2367 59.5399 81.2367H59.8685C62.3456 81.2367 63.9523 82.5695 64.9443 84.0667C65.5712 85.0161 67.2266 88.2904 67.2266 89.6902C67.2266 89.9032 67.0318 90.1284 66.8979 90.1284C65.4616 90.1284 62.3699 88.7225 61.4996 88.0592C60.2398 87.1097 58.773 85.4726 58.773 83.3181V83.3242ZM24.9346 90.1284C26.2066 90.1284 29.3835 88.6252 30.2112 88.047C31.4467 87.1767 32.8465 85.5152 32.8465 83.4338V83.1051C32.8465 82.4235 32.7065 81.2367 32.0796 81.2367H30.978C27.4238 81.2367 25.1232 86.5437 24.3868 89.6902C24.5146 89.9337 24.4842 90.1284 24.825 90.1284H24.9346ZM18.8972 86.6168H17.3574C17.1018 86.6168 16.9192 86.4342 16.9192 86.1786C16.9192 85.3204 19.2137 82.5148 19.804 81.9244C20.8813 80.8411 22.6036 79.5935 24.7216 79.5935H25.0502C25.8292 79.5935 26.8091 79.7943 26.8091 80.5794V80.6889C26.8091 84.8275 23.127 86.6168 18.8972 86.6168ZM64.8104 80.4698C64.8104 84.797 68.4255 86.6168 72.8318 86.6168H74.1525C74.4507 86.6168 74.4568 86.562 74.7003 86.5072V86.069C74.7003 85.1683 72.4728 82.5817 71.8702 81.9792C70.9452 81.0602 69.1985 79.5935 67.4518 79.5935H67.1231C66.265 79.5935 64.8165 79.6969 64.8165 80.4698H64.8104ZM14.3935 83.1051C17.6191 83.1051 20.8752 80.8776 20.8752 77.8346C20.8752 77.1529 19.0068 76.6295 18.3495 76.6295H17.9113C16.3045 76.6295 14.2718 77.9806 13.3163 78.7353C12.7503 79.1796 10.2185 81.6992 10.2185 82.3383C10.2185 82.9773 12.6833 83.1051 13.511 83.1051H14.3935ZM70.8539 77.8346V77.725C70.8539 77.0921 72.6614 76.6295 73.3796 76.6295H73.8178C75.4428 76.6295 77.2686 77.932 78.2545 78.6684C78.7536 79.0457 81.3949 81.6505 81.3949 82.1131C81.3949 83.1721 78.8327 83.099 77.7676 83.099C74.1829 83.099 70.8478 81.2245 70.8478 77.8285L70.8539 77.8346ZM79.0153 69.6306C79.3926 69.2958 81.8392 66.3076 81.8392 65.9789C81.8392 65.4008 81.401 64.8774 81.401 64.001V63.2341C81.401 61.8282 82.5391 59.9416 83.1903 59.0895C83.5981 58.554 85.6369 56.2047 86.2333 56.2047C86.9515 56.2047 87.1097 59.2295 87.1097 60.1546V60.2641C87.1097 63.1733 85.8012 65.5651 83.5737 66.1737C82.0279 66.5936 81.9914 67.2692 81.115 68.4377C80.3603 69.4358 79.7152 70.1357 78.8449 70.9999C75.3515 74.4933 71.9737 76.2218 67.2266 78.3823C65.3399 79.2465 62.303 80.1108 60.0207 80.622C58.6331 80.9324 57.5315 81.1332 56.0648 81.3888C54.6284 81.6384 53.2287 81.681 51.7802 81.9366C47.2826 82.7217 46.9052 81.0298 46.9052 86.6107C46.9052 89.7754 47.0148 92.788 47.0148 96.0502V99.0141C47.0148 99.5557 46.5705 100 46.0289 100H45.5907C43.9839 100 44.6047 97.316 44.6047 95.831C44.6047 94.0357 44.6047 92.2403 44.6047 90.451C44.6047 88.899 44.7143 86.9454 44.7143 85.1865C44.7143 83.0077 44.4465 82.247 42.4076 82.1131C35.4574 81.6505 29.8765 80.5733 24.5451 78.4493C18.9642 76.2279 15.4951 73.763 11.6244 69.8497C10.8636 69.0828 9.92027 67.7378 9.30558 66.7884C9.04997 66.3867 8.03359 66.2102 7.49802 65.9607C6.91376 65.6929 6.42079 65.2121 5.97042 64.7435C5.01491 63.7514 4.78973 62.4003 4.5402 60.7936C4.39413 59.8381 4.78364 56.2047 5.39833 56.2047C6.01303 56.2047 8.07011 58.5113 8.49613 59.0408C9.28732 60.0329 10.2367 61.6092 10.2367 63.3437V64.001C10.2367 64.6583 10.0055 65.5407 9.79855 65.9789C12.3608 70.8234 18.7998 74.8524 24.2347 77.0191C26.4622 77.9076 31.5866 79.5143 34.2949 79.703C34.8853 79.7456 36.2729 80.0256 37.0519 80.129C37.9892 80.2568 39.036 80.2386 39.9854 80.3846C41.0078 80.5429 41.6956 80.5794 42.9736 80.5794C43.5883 80.5794 44.0752 80.549 44.5378 80.6646C44.8055 80.7315 45.7063 81.1271 45.7185 81.1271C46.1993 81.1271 46.8444 80.5794 48.3537 80.5794C49.437 80.5794 50.5447 80.4638 51.4272 80.4698C52.9974 80.4698 55.5961 80.0316 57.0933 79.7699C60.7754 79.1187 64.2079 78.3154 67.2448 77.0738C70.6226 75.6923 72.8014 74.5177 75.5888 72.5701C76.8486 71.6938 77.8772 70.6713 79.0275 69.6367L79.0153 69.6306ZM43.0649 75.1993C43.0649 76.3313 43.4179 77.3294 43.8379 78.0537C44.0387 78.4067 45.1768 79.8125 45.5967 79.8125H45.9254C46.7531 79.8125 48.3415 77.2381 48.3415 76.0818V74.8768C48.3415 73.4709 46.5949 69.2776 45.7063 69.2776C45.2438 69.2776 44.1787 71.3408 43.9474 71.8033C43.4605 72.7649 43.071 73.763 43.071 75.2054L43.0649 75.1993ZM52.401 79.4839C53.04 79.4839 54.0138 78.005 54.3059 77.4329C54.7562 76.5382 54.8719 75.4062 54.665 74.256C54.458 73.0692 52.7053 69.1619 51.9628 69.1619H51.8532C50.9829 69.1619 49.7657 73.7813 49.7657 75.1993C49.7657 76.9582 51.0012 79.4778 52.401 79.4778V79.4839ZM36.9119 75.7471C36.9119 77.086 38.2691 79.4778 39.4376 79.4778C40.4905 79.4778 41.8538 77.1164 41.8538 75.6375V74.3229C41.8538 73.1483 40.4662 69.1619 39.7663 69.1619C39.322 69.1619 37.977 71.4807 37.8066 71.9189C37.338 73.1361 36.9119 73.9273 36.9119 75.6375V75.7471ZM55.8031 74.3229C55.8031 75.3089 56.223 76.7208 56.6125 77.3538C56.9168 77.8407 57.9514 79.1553 58.5479 79.1553C59.4973 79.1553 60.8545 76.5626 60.8545 75.4245V74.8768C60.8545 73.0814 58.3896 68.4012 57.4524 68.4012C56.7646 68.4012 55.8031 72.3754 55.8031 73.3431V74.329V74.3229ZM33.1751 79.1553C33.6559 79.1553 34.8792 77.7068 35.1165 77.2564C35.5669 76.4044 35.8104 75.4732 35.8104 74.2195V73.2335C35.8104 72.2476 34.8731 68.4012 34.161 68.4012C33.8202 68.4012 32.3109 70.7322 32.0735 71.146C31.6049 71.9555 30.8685 73.4039 30.8685 74.6637V75.321C30.8685 76.7269 32.1831 79.1613 33.1751 79.1613V79.1553ZM76.3435 74.7611C76.3435 76.4226 79.0761 78.4919 80.8472 78.4919H82.3869C83.4581 78.4919 87.767 77.0312 87.767 76.2948V76.1853C87.767 75.6801 85.1744 74.189 84.6205 73.9517C83.3242 73.4039 82.2044 72.8927 80.409 72.8927H80.2994C78.9848 72.8927 76.3435 73.8726 76.3435 74.7611ZM10.5471 78.4919H9.78029C8.44745 78.4919 3.84639 77.1347 3.84639 76.2948C3.84639 75.1932 9.0378 72.8927 10.8758 72.8927H11.7522C12.7868 72.8927 15.2699 74.0125 15.2699 74.6516V74.9802C15.2699 76.5869 12.4764 78.4919 10.5471 78.4919ZM61.4083 73.337C61.4083 74.8585 62.9055 77.6155 63.934 77.6155H64.0436C65.3095 77.6155 66.3502 74.9315 66.3502 73.337C66.3502 71.6085 63.8427 66.971 62.942 66.971H62.8325C62.2847 66.971 61.4022 70.507 61.4022 71.2556V73.3431L61.4083 73.337ZM27.5759 77.6155C29.067 77.6155 30.3207 74.5481 30.3207 72.5641V72.4545C30.3207 71.2373 29.5417 66.9649 28.781 66.9649C27.9167 66.9649 25.3728 71.4807 25.3728 73.1118V73.9882C25.3728 75.1871 26.6813 77.6094 27.4603 77.6094H27.5698L27.5759 77.6155ZM22.5184 75.6375C23.8634 75.6375 25.1537 72.6432 25.1537 70.8052V70.6956C25.1537 69.4419 24.3625 64.9869 23.6139 64.9869C23.0236 64.9869 21.5812 67.2996 21.3073 67.8413C20.7352 68.9672 20.2118 70.0931 20.2118 71.7972C20.2118 73.0814 21.5446 75.6375 22.5184 75.6375ZM71.4016 67.8474C71.4016 69.7158 72.7771 72.6797 74.256 72.6797C75.0532 72.6797 76.3435 70.3548 76.3435 69.3871V67.8474C76.3435 66.4354 73.6717 62.0291 72.8258 62.0291C72.2902 62.0291 71.3955 66.125 71.3955 67.0805V67.8474H71.4016ZM17.467 72.6736C16.3532 72.6736 15.2699 70.0566 15.2699 68.7238C15.2699 66.2711 17.3635 62.9785 18.7877 62.0291C19.5849 62.5647 20.2179 65.7842 20.2179 67.2996V67.6283C20.2179 69.0341 20.0292 69.8253 19.5241 70.7747C19.2319 71.3347 18.1791 72.6736 17.4731 72.6736H17.467ZM85.4604 72.345C87.2497 72.345 91.6134 69.9957 91.6134 68.8333C91.6134 68.1152 87.98 67.184 87.0002 67.184H85.6795C84.5779 67.184 83.4094 67.5248 82.7339 67.9752C82.2652 68.2856 80.9567 69.3202 80.9567 69.9288C80.9567 70.7443 83.2512 72.345 84.3649 72.345H85.4665H85.4604ZM0 68.9428C0 69.4054 2.1849 70.9086 2.63526 71.1399C3.70641 71.6877 4.61323 72.345 6.26255 72.345H7.24849C8.36224 72.345 10.6567 70.9208 10.6567 69.9288V69.8192C10.6567 68.9003 7.97274 67.184 6.8103 67.184H4.83233C3.74901 67.184 0 68.103 0 68.8333V68.9428ZM68.1091 64.8835C67.1718 65.5103 66.4902 69.1011 66.4537 70.8113C66.4232 72.5519 67.9082 75.6436 69.095 75.6436H69.2046C70.0627 75.6436 71.4016 73.264 71.4016 72.132V70.7017C71.4016 69.1437 69.0889 65.5407 68.1091 64.8835ZM76.1244 64.7739C76.1244 66.3258 77.0982 69.0524 78.431 69.0524C79.5508 69.0524 80.7376 66.6667 80.7376 65.1026V64.7739C80.7376 63.2159 78.9605 59.1991 77.7737 59.1747C77.3112 60.9153 76.1244 62.1204 76.1244 64.7739Z" clip-rule="evenodd"/><path fill="#fff" fill-rule="evenodd" d="M103.487 68.9063C103.487 69.7218 103.183 70.3548 102.574 70.7808C101.966 71.219 101.077 71.4381 99.8965 71.4381C97.7786 71.4381 96.5492 70.6713 96.1962 69.1376L97.8881 68.8576C97.9977 69.308 98.229 69.6245 98.5576 69.8192C98.8862 70.0261 99.3488 70.1235 99.9452 70.1235C100.542 70.1235 101.016 70.0261 101.321 69.8436C101.625 69.661 101.783 69.381 101.783 69.0037C101.783 68.7724 101.71 68.5777 101.576 68.4194C101.442 68.2612 101.235 68.1395 100.98 68.0299C100.846 67.9812 100.663 67.9204 100.42 67.8595C100.176 67.7986 99.8722 67.7256 99.507 67.6526C99.081 67.5552 98.7524 67.47 98.5211 67.397C98.2776 67.3361 98.0829 67.2631 97.949 67.2022C97.8029 67.1413 97.669 67.0683 97.5351 66.9831C97.2308 66.8005 96.9996 66.5693 96.8413 66.265C96.6709 65.9728 96.5857 65.6077 96.5857 65.1573C96.5857 64.4026 96.8657 63.8184 97.4378 63.4167C98.0099 63.015 98.8376 62.8203 99.9209 62.8203C101.004 62.8203 101.735 62.9785 102.258 63.3071C102.781 63.6358 103.11 64.1714 103.268 64.9139L101.564 65.1451C101.479 64.7921 101.296 64.5122 101.041 64.3296C100.773 64.147 100.383 64.0618 99.8844 64.0618C99.361 64.0618 98.9593 64.147 98.6915 64.3052C98.4237 64.4757 98.2898 64.7313 98.2898 65.0599C98.2898 65.279 98.3507 65.4616 98.4602 65.5955C98.5698 65.7294 98.7402 65.8511 98.9593 65.9485C99.1662 66.0459 99.6166 66.1676 100.31 66.3136C100.712 66.3988 101.065 66.4841 101.345 66.5571C101.637 66.6423 101.868 66.7153 102.039 66.7762C102.221 66.8614 102.38 66.9344 102.514 67.0196C102.647 67.1048 102.757 67.19 102.867 67.2874C103.073 67.4822 103.22 67.7134 103.329 67.9812C103.439 68.249 103.487 68.5533 103.487 68.9063Z" clip-rule="evenodd"/><path fill="#fff" fill-rule="evenodd" d="M106.25 71.4381C105.63 71.4381 105.143 71.2677 104.79 70.9269C104.437 70.5861 104.266 70.1113 104.266 69.5027C104.266 68.8333 104.485 68.3342 104.924 67.9812C105.35 67.6404 105.983 67.4578 106.81 67.4457L108.198 67.4213V67.0927C108.198 66.6666 108.125 66.3623 107.979 66.1554C107.833 65.9485 107.589 65.8511 107.261 65.8511C106.932 65.8511 106.713 65.9241 106.579 66.058C106.433 66.1919 106.336 66.4232 106.299 66.7518L104.558 66.6788C104.778 65.4007 105.703 64.7678 107.322 64.7678C108.137 64.7678 108.758 64.9625 109.208 65.3642C109.646 65.7659 109.865 66.338 109.865 67.0683V69.4175C109.865 69.7705 109.902 70.0261 109.987 70.16C110.072 70.2939 110.206 70.367 110.389 70.367C110.523 70.367 110.644 70.3548 110.766 70.3304V71.2312C110.559 71.292 110.377 71.3286 110.231 71.3529C110.085 71.3773 109.902 71.3894 109.695 71.3894C109.269 71.3894 108.965 71.2799 108.758 71.0729C108.563 70.866 108.441 70.5739 108.405 70.1722H108.368C108.137 70.5982 107.845 70.9147 107.492 71.1216C107.139 71.3286 106.725 71.4381 106.25 71.4381ZM108.198 68.3342L107.334 68.3464C106.944 68.3707 106.664 68.4194 106.506 68.4803C106.348 68.5411 106.226 68.6507 106.141 68.7968C106.056 68.9428 106.007 69.1376 106.007 69.3689C106.007 69.6732 106.08 69.8923 106.226 70.0505C106.36 70.1966 106.555 70.2696 106.786 70.2696C107.042 70.2696 107.285 70.1966 107.504 70.0505C107.711 69.9166 107.881 69.7218 108.015 69.4662C108.137 69.2106 108.198 68.9428 108.198 68.6629V68.3342ZM108.234 64.2809C108.076 64.2809 107.918 64.2444 107.76 64.1835C107.601 64.1105 107.431 64.0375 107.273 63.9523C107.09 63.8549 106.92 63.7697 106.762 63.6845C106.603 63.5993 106.457 63.5506 106.323 63.5506C106.165 63.5506 106.031 63.5993 105.946 63.6967C105.861 63.7819 105.8 63.9766 105.739 64.2809H104.924C104.96 63.5993 105.106 63.1367 105.337 62.9055C105.569 62.662 105.885 62.5403 106.263 62.5403C106.445 62.5403 106.628 62.589 106.81 62.6742C106.993 62.7594 107.175 62.8446 107.358 62.942C107.516 63.0272 107.662 63.1124 107.796 63.1732C107.93 63.2341 108.064 63.2706 108.174 63.2706C108.332 63.2706 108.454 63.2219 108.539 63.1246C108.624 63.0272 108.697 62.8324 108.758 62.5403H109.561C109.537 63.1611 109.415 63.6114 109.184 63.8792C108.953 64.147 108.636 64.2809 108.234 64.2809Z" clip-rule="evenodd"/><path fill="#fff" fill-rule="evenodd" d="M117.692 68.0908C117.692 69.1376 117.4 69.9531 116.816 70.5496C116.244 71.146 115.44 71.4381 114.418 71.4381C113.395 71.4381 112.629 71.146 112.056 70.5496C111.484 69.9531 111.204 69.1254 111.204 68.0908C111.204 67.0562 111.484 66.2528 112.056 65.6564C112.629 65.0599 113.432 64.7678 114.454 64.7678C115.477 64.7678 116.317 65.0478 116.864 65.6198C117.412 66.1919 117.692 67.0196 117.692 68.0908ZM115.939 68.0908C115.939 67.3239 115.818 66.7762 115.562 66.4354C115.319 66.0824 114.953 65.912 114.479 65.912C113.98 65.912 113.59 66.0946 113.335 66.4597C113.079 66.8249 112.957 67.3726 112.957 68.0908C112.957 68.8089 113.079 69.3567 113.335 69.734C113.578 70.1114 113.931 70.2939 114.406 70.2939C114.917 70.2939 115.306 70.1114 115.562 69.7462C115.818 69.381 115.939 68.8333 115.939 68.0908Z" clip-rule="evenodd"/><path fill="#fff" fill-rule="evenodd" d="M124.113 68.1395V71.3164H122.36V62.942H126.547C127.545 62.942 128.312 63.1611 128.86 63.5871C129.396 64.0131 129.663 64.6339 129.663 65.4373C129.663 66.0215 129.493 66.5328 129.164 66.9588C128.836 67.3848 128.385 67.6648 127.825 67.7987L130.089 71.3164H128.118L126.17 68.1395H124.113ZM127.898 65.5103C127.898 65.1086 127.777 64.8165 127.521 64.6096C127.266 64.4026 126.876 64.3053 126.365 64.3053H124.113V66.7762H126.401C126.9 66.7762 127.266 66.6666 127.521 66.4475C127.777 66.2163 127.898 65.912 127.898 65.5103Z" clip-rule="evenodd"/><path fill="#fff" fill-rule="evenodd" d="M132.67 71.4381C132.049 71.4381 131.562 71.2677 131.209 70.9269C130.856 70.5861 130.686 70.1114 130.686 69.5028C130.686 68.8333 130.905 68.3342 131.343 67.9812C131.769 67.6404 132.402 67.4578 133.23 67.4457L134.617 67.4213V67.0927C134.617 66.6667 134.544 66.3623 134.386 66.1554C134.24 65.9485 133.997 65.8511 133.668 65.8511C133.364 65.8511 133.132 65.9241 132.999 66.058C132.853 66.1919 132.755 66.4232 132.719 66.7519L130.978 66.6788C131.197 65.4007 132.122 64.7678 133.741 64.7678C134.557 64.7678 135.177 64.9626 135.628 65.3642C136.066 65.7659 136.285 66.338 136.285 67.0683V69.4175C136.285 69.7705 136.322 70.0262 136.407 70.16C136.492 70.2939 136.626 70.367 136.808 70.367C136.942 70.367 137.064 70.3548 137.186 70.3305V71.2312C136.979 71.292 136.796 71.3286 136.65 71.3529C136.504 71.3773 136.322 71.3894 136.115 71.3894C135.689 71.3894 135.384 71.2799 135.177 71.073C134.983 70.866 134.861 70.5739 134.824 70.1722H134.788C134.557 70.5982 134.252 70.9147 133.899 71.1216C133.546 71.3286 133.145 71.4381 132.67 71.4381ZM134.617 68.3342L133.753 68.3464C133.364 68.3708 133.084 68.4194 132.926 68.4803C132.767 68.5412 132.646 68.6507 132.56 68.7968C132.475 68.9428 132.426 69.1376 132.426 69.3689C132.426 69.6732 132.5 69.8923 132.646 70.0505C132.779 70.1966 132.974 70.2696 133.206 70.2696C133.461 70.2696 133.705 70.1966 133.924 70.0505C134.131 69.9166 134.301 69.7219 134.423 69.4662C134.557 69.2106 134.617 68.9428 134.617 68.6629V68.3342Z" clip-rule="evenodd"/><path fill="#fff" fill-rule="evenodd" d="M139.912 66.0093V71.3164H138.245V66.0093H137.308V64.8895H138.245V64.22C138.245 63.6358 138.403 63.1976 138.707 62.9176C139.012 62.6377 139.486 62.4916 140.119 62.4916C140.448 62.4916 140.801 62.5281 141.178 62.589V63.6723C141.02 63.6358 140.85 63.6114 140.691 63.6114C140.411 63.6114 140.204 63.6723 140.083 63.7818C139.973 63.8914 139.912 64.0983 139.912 64.3783V64.8895H141.178V66.0093H139.912Z" clip-rule="evenodd"/><path fill="#fff" fill-rule="evenodd" d="M143.491 71.4381C142.87 71.4381 142.383 71.2677 142.03 70.9269C141.677 70.5861 141.507 70.1114 141.507 69.5028C141.507 68.8333 141.726 68.3342 142.164 67.9812C142.59 67.6404 143.223 67.4578 144.051 67.4457L145.438 67.4213V67.0927C145.438 66.6667 145.365 66.3623 145.207 66.1554C145.061 65.9485 144.818 65.8511 144.489 65.8511C144.185 65.8511 143.954 65.9241 143.82 66.058C143.674 66.1919 143.576 66.4232 143.54 66.7519L141.799 66.6788C142.018 65.4007 142.943 64.7678 144.562 64.7678C145.378 64.7678 145.998 64.9626 146.449 65.3642C146.887 65.7659 147.106 66.338 147.106 67.0683V69.4175C147.106 69.7705 147.143 70.0262 147.228 70.16C147.313 70.2939 147.447 70.367 147.629 70.367C147.763 70.367 147.885 70.3548 148.007 70.3305V71.2312C147.8 71.292 147.617 71.3286 147.471 71.3529C147.325 71.3773 147.143 71.3894 146.936 71.3894C146.51 71.3894 146.205 71.2799 145.998 71.073C145.804 70.866 145.682 70.5739 145.645 70.1722H145.609C145.378 70.5982 145.073 70.9147 144.72 71.1216C144.367 71.3286 143.966 71.4381 143.491 71.4381ZM145.438 68.3342L144.574 68.3464C144.185 68.3708 143.905 68.4194 143.747 68.4803C143.588 68.5412 143.467 68.6507 143.381 68.7968C143.296 68.9428 143.248 69.1376 143.248 69.3689C143.248 69.6732 143.321 69.8923 143.467 70.0505C143.601 70.1966 143.795 70.2696 144.027 70.2696C144.282 70.2696 144.526 70.1966 144.745 70.0505C144.952 69.9166 145.122 69.7219 145.244 69.4662C145.378 69.2106 145.438 68.9428 145.438 68.6629V68.3342Z" clip-rule="evenodd"/><path fill="#fff" fill-rule="evenodd" d="M150.149 68.4194C150.149 69.0402 150.271 69.5149 150.502 69.8436C150.733 70.16 151.062 70.3183 151.488 70.3183C151.78 70.3183 152.024 70.2574 152.206 70.1235C152.389 69.9896 152.523 69.8071 152.608 69.5514L154.178 69.6853C153.728 70.8539 152.803 71.4381 151.403 71.4381C150.441 71.4381 149.699 71.146 149.175 70.5739C148.652 70.0018 148.396 69.1741 148.396 68.0664C148.396 66.9588 148.664 66.1919 149.187 65.6198C149.711 65.0478 150.466 64.7678 151.427 64.7678C152.389 64.7678 153.058 65.0721 153.545 65.6807C154.032 66.3015 154.275 67.19 154.275 68.3707V68.4194H150.149ZM152.657 67.3726C152.62 66.8492 152.498 66.4597 152.279 66.2041C152.072 65.9485 151.78 65.8146 151.403 65.8146C151.025 65.8146 150.709 65.9485 150.502 66.2285C150.295 66.5084 150.173 66.8857 150.161 67.3726H152.657Z" clip-rule="evenodd"/><path fill="#fff" d="M157.209 62.4916H155.541V71.3164H157.209V62.4916Z"/><path fill="#fff" d="M165.017 67.4335H161.926V68.882H165.017V67.4335Z"/><path fill="#fff" fill-rule="evenodd" d="M171.45 68.1395V71.3164H169.697V62.942H173.885C174.883 62.942 175.65 63.1611 176.197 63.5871C176.733 64.0131 177.001 64.6339 177.001 65.4373C177.001 66.0215 176.83 66.5328 176.502 66.9588C176.173 67.3848 175.723 67.6648 175.163 67.7987L177.427 71.3164H175.455L173.507 68.1395H171.45ZM175.236 65.5103C175.236 65.1086 175.114 64.8165 174.858 64.6096C174.603 64.4026 174.213 64.3053 173.702 64.3053H171.45V66.7762H173.739C174.238 66.7762 174.603 66.6666 174.858 66.4475C175.114 66.2163 175.236 65.912 175.236 65.5103Z" clip-rule="evenodd"/><path fill="#fff" fill-rule="evenodd" d="M180.05 66.3745V71.3164H178.492V62.942H180.488L184.201 69.4419C184.128 68.8455 184.091 68.2977 184.091 67.8108V62.942H185.649V71.3164H183.592L179.94 64.8652C179.977 65.1817 180.001 65.4616 180.026 65.7172C180.038 65.9728 180.05 66.1919 180.05 66.3745Z" clip-rule="evenodd"/><path fill="#fff" fill-rule="evenodd" d="M102.623 51.2446L101.655 54.0198C101.345 54.9327 100.925 55.6326 100.396 56.1195C99.8721 56.6003 99.2514 56.8438 98.5515 56.8438C97.6507 56.8438 96.9143 56.5638 96.3361 55.9856C95.758 55.4135 95.4719 54.6954 95.4719 53.8251C95.4719 53.4782 95.4963 53.1495 95.551 52.8452C95.6058 52.5409 95.6789 52.267 95.7823 52.0175L103.165 32.6273C103.694 31.2336 104.37 30.2051 105.167 29.5539C105.964 28.9027 106.95 28.574 108.119 28.574C109.22 28.574 110.182 28.8844 110.991 29.5052C111.801 30.1321 112.428 31.0328 112.866 32.2074L120.06 51.9201C120.2 52.3401 120.303 52.7113 120.376 53.0339C120.449 53.3625 120.48 53.6547 120.48 53.9042C120.48 54.7745 120.181 55.4805 119.585 56.0282C118.988 56.576 118.222 56.8438 117.29 56.8438C116.451 56.8438 115.763 56.5942 115.209 56.0891C114.655 55.59 114.223 54.8232 113.901 53.7886L113.103 51.2446H102.617H102.623ZM104.461 45.4811H111.235L107.967 35.3052L104.461 45.4811ZM129.396 52.3157C129.396 53.8129 129.128 54.9266 128.598 55.657C128.069 56.3812 127.253 56.7525 126.164 56.7525C125.075 56.7525 124.259 56.3873 123.723 55.657C123.194 54.9327 122.926 53.819 122.926 52.3157V33.3577C122.926 31.684 123.261 30.5337 123.918 29.9069C124.582 29.2739 125.738 28.9635 127.387 28.9635H133.212C136.413 28.9635 138.951 29.7973 140.801 31.4771C142.657 33.1568 143.588 35.4269 143.588 38.2874C143.588 41.1478 142.718 43.4788 140.977 45.1281C139.243 46.7774 136.827 47.599 133.735 47.599H129.396V52.3157ZM129.396 41.9268H132.183C133.644 41.9268 134.751 41.6225 135.488 41.0139C136.224 40.4053 136.595 39.4985 136.595 38.2935C136.595 37.0884 136.236 36.1755 135.518 35.5912C134.794 35.007 133.686 34.7148 132.183 34.7148H129.396V41.9268ZM149.553 51.2446H160.039L160.836 53.7886C161.159 54.8232 161.591 55.59 162.145 56.0891C162.699 56.5881 163.386 56.8438 164.226 56.8438C165.157 56.8438 165.924 56.576 166.521 56.0282C167.117 55.4805 167.421 54.7745 167.421 53.9042C167.421 53.6547 167.391 53.3625 167.318 53.0339C167.245 52.7113 167.141 52.3401 167.001 51.9201L159.808 32.2074C159.369 31.0328 158.743 30.1321 157.933 29.5052C157.124 28.8783 156.162 28.574 155.061 28.574C153.892 28.574 152.906 28.9027 152.109 29.5539C151.312 30.2112 150.642 31.2336 150.106 32.6273L142.724 52.0175C142.621 52.267 142.541 52.547 142.493 52.8452C142.444 53.1434 142.414 53.4782 142.414 53.8251C142.414 54.6954 142.7 55.4135 143.278 55.9856C143.856 56.5577 144.592 56.8438 145.493 56.8438C146.193 56.8438 146.808 56.6003 147.337 56.1195C147.861 55.6387 148.281 54.9388 148.597 54.0198L149.565 51.2446H149.553ZM151.385 45.4811L154.89 35.3052L158.158 45.4811H151.385ZM181.571 28.9635C183.105 28.9635 184.255 29.207 185.022 29.6878C185.789 30.1686 186.172 30.9111 186.172 31.9031C186.172 32.8951 185.795 33.595 185.034 34.0697C184.267 34.5444 183.117 34.7818 181.571 34.7818H176.319V39.6872H180.853C182.393 39.6872 183.555 39.9245 184.31 40.3992C185.071 40.8739 185.448 41.6104 185.448 42.5841C185.448 43.5579 185.071 44.2882 184.31 44.7568C183.555 45.2255 182.393 45.4628 180.853 45.4628H176.319V50.6177H181.772C183.33 50.6177 184.487 50.8551 185.235 51.3298C185.984 51.8045 186.367 52.5348 186.367 53.4964C186.367 54.458 185.99 55.2066 185.235 55.6813C184.487 56.156 183.33 56.3934 181.772 56.3934H174.232C172.558 56.3934 171.408 56.1195 170.787 55.5657C170.16 55.0119 169.85 53.9772 169.85 52.4557V33.3333C169.85 31.6657 170.184 30.5155 170.842 29.8825C171.505 29.2557 172.661 28.9453 174.311 28.9453H181.571V28.9635Z" clip-rule="evenodd"/></svg>