<svg xmlns="http://www.w3.org/2000/svg" width="164" height="158" fill="none" viewBox="0 0 164 158"><path fill="#87E8D5" d="M14.5348 28.2221C10.8959 25.5724 10.0908 20.466 12.753 16.8293C13.558 15.7244 14.5885 14.8876 15.7264 14.319L8.07276 8.74063C15.6834 0.104821 23.5517 -0.292103 28.9941 1.0274L29.1444 1.05959L36.8087 8.06478L35.0912 8.71917C28.554 11.2187 23.4659 15.2094 19.1077 21.2706C17.4117 23.6736 16.0699 26.0766 15.0394 28.5332C14.8676 28.426 14.7066 28.3187 14.5456 28.2007L14.5348 28.2221Z"/><path fill="#3887E5" d="M3.21006 37.2978C-0.0531979 32.245 -2.35036 23.931 4.98123 12.8064L5.56087 11.9589L5.70043 11.7765L5.83998 11.5727L6.4411 10.7467H6.45183C6.99928 10.0387 7.55748 9.37354 8.10494 8.7406L15.7585 14.3083C14.61 14.8768 13.5902 15.7136 12.7851 16.8186C10.1337 20.4553 10.9281 25.5616 14.567 28.2114C14.728 28.3294 14.8891 28.4367 15.0501 28.5332C13.4507 32.3308 12.6241 36.2572 12.4953 40.5053L12.4416 42.3505L3.30666 37.4265L3.22079 37.2978H3.21006Z"/><path stroke="#172A4D" stroke-linecap="round" stroke-linejoin="round" stroke-width=".28" d="M15.0286 28.5547C14.8568 28.4474 14.6958 28.3401 14.5348 28.2221C10.8958 25.5724 10.0908 20.466 12.7529 16.8293C13.558 15.7243 14.5885 14.8876 15.7263 14.319L8.07271 8.7406"/><path fill="#F4C540" d="M13.1071 53.4859L17.5082 52.5311L15.0501 41.1919C15.9732 41.4494 16.9393 41.5352 17.9269 41.4494C13.5795 39.4326 9.54332 36.9223 5.9473 33.8006C2.67331 30.9577 0.129267 27.1708 0.150734 26.3984C0.129267 26.8061 0.107803 27.2245 0.107803 27.6321L0.236612 29.96C0.290283 30.6252 1.52473 42.6187 13.1071 53.4752V53.4859Z"/><path fill="#87E8D5" d="M17.9269 41.4601C16.9286 41.5567 15.9518 41.4601 15.0179 41.2026L17.476 52.5418L28.8223 50.0852C28.4788 51.3189 28.4251 52.6384 28.7149 53.9686C29.6703 58.367 34.0177 61.1669 38.4188 60.2121C42.8199 59.2574 45.6216 54.9126 44.6663 50.5143C44.4838 49.6775 44.1832 48.9051 43.7753 48.1971C34.6189 47.1136 25.763 45.0968 17.9162 41.4494L17.9269 41.4601Z"/><path fill="#3887E5" d="M18.6891 58.0022L17.4976 52.5311L13.0965 53.4858C14.7388 55.0306 16.5959 56.5432 18.6783 58.0022H18.6891Z"/><path fill="#DD3631" d="M43.786 48.1971C44.1832 48.9051 44.4945 49.6775 44.677 50.5143C45.6324 54.9126 42.8307 59.2573 38.4296 60.2121C34.0285 61.1669 29.6811 58.367 28.7257 53.9686C28.4359 52.6384 28.4895 51.3081 28.833 50.0852L17.4868 52.5418L18.6676 57.9915C20.6642 59.3861 22.8647 60.727 25.3122 61.9929C26.0528 62.3791 26.815 62.7439 27.5986 63.1086C28.7472 63.645 29.9494 64.1492 31.1731 64.6319C36.4008 66.6916 42.2403 68.2472 48.2837 69.1912C48.3696 69.2019 48.4555 69.2127 48.5521 69.2341C47.6289 68.215 46.942 66.9384 46.6307 65.5009C45.6753 61.1025 48.477 56.7578 52.8781 55.803C54.2091 55.5134 55.5402 55.567 56.7639 55.9103L55.2933 49.1089C51.4397 48.9373 47.586 48.6584 43.786 48.2078V48.1971Z"/><path fill="#F4C540" d="M59.2757 70.4571C59.4904 70.4785 59.7051 70.4893 59.9198 70.5107C59.9198 70.5107 59.9198 70.5107 59.9305 70.5107C60.6605 70.5644 61.3797 70.618 62.1096 70.6716C62.2277 70.6716 62.335 70.6824 62.4531 70.6931C63.0865 70.736 63.7305 70.7682 64.3638 70.8004C64.4927 70.8004 64.6215 70.8111 64.7503 70.8218C65.4373 70.854 66.135 70.8862 66.822 70.9184C66.8757 70.9184 66.9186 70.9184 66.9723 70.9184C67.7452 70.9506 68.5181 70.972 69.2802 70.9935C69.2909 70.9935 69.3017 70.9935 69.3124 70.9935C70.0209 71.0149 70.7293 71.0257 71.4378 71.0257C71.631 71.0257 71.835 71.0257 72.0282 71.0257C72.5542 71.0257 73.0909 71.0257 73.6169 71.0257C73.853 71.0257 74.0892 71.0257 74.3254 71.0257C74.8406 71.0257 75.3666 71.0257 75.8818 71.0149C76.0965 71.0149 76.3112 71.0149 76.5259 71.0149C77.2451 71.0042 77.975 70.9828 78.6943 70.9613C78.6943 70.9613 78.705 70.9613 78.7157 70.9613C79.6067 70.9291 80.5084 70.8969 81.3886 70.8647C81.6999 70.854 82.0004 70.8326 82.3117 70.8218C82.8914 70.7896 83.4818 70.7682 84.0614 70.736C84.4372 70.7146 84.8021 70.6931 85.1778 70.6716C85.6931 70.6395 86.1976 70.6073 86.7021 70.5751C87.11 70.5536 87.5072 70.5215 87.9151 70.4893C88.3874 70.4571 88.8597 70.4142 89.332 70.382C89.7507 70.3498 90.1693 70.3176 90.5987 70.2747C91.0495 70.2318 91.4896 70.1996 91.9405 70.1567C92.3699 70.1138 92.81 70.0816 93.2394 70.0387C93.6687 69.9958 94.0874 69.9529 94.5167 69.91C94.9568 69.8671 95.4077 69.8242 95.8478 69.7705C96.4167 69.7062 96.9857 69.6418 97.5546 69.5667C97.78 69.5345 98.0162 69.5131 98.2416 69.4916L96.6314 62.0573C95.6546 62.8726 94.4631 63.4734 93.132 63.763C88.7309 64.7178 84.3835 61.9178 83.4281 57.5195C82.666 53.9793 84.3191 50.4821 87.2818 48.7549C86.4015 48.8086 85.5213 48.8515 84.6518 48.8944C84.5338 48.8944 84.4264 48.9051 84.3083 48.9159C83.4067 48.9588 82.5157 48.991 81.614 49.0231C80.6157 49.0553 79.6067 49.0875 78.5869 49.109C78.5118 49.109 78.4474 49.109 78.3722 49.109C77.3525 49.1411 76.3327 49.1626 75.3022 49.184C75.2485 49.184 75.2056 49.184 75.1519 49.184C74.0999 49.2055 73.0372 49.227 71.9638 49.2484C70.9011 49.2699 69.8277 49.2806 68.7435 49.2913C68.6898 49.2913 68.6469 49.2913 68.5932 49.2913C67.5198 49.2913 66.4356 49.3021 65.3514 49.3021C65.3299 49.3021 65.3085 49.3021 65.2977 49.3021C64.2028 49.3021 63.1079 49.3021 62.0023 49.2806C61.9915 49.2806 61.9808 49.2806 61.9701 49.2806C60.8752 49.2699 59.7803 49.2484 58.6854 49.2162C58.6424 49.2162 58.5887 49.2162 58.5458 49.2162C57.4509 49.1841 56.3453 49.1519 55.2396 49.0982L56.7102 55.9103C55.4758 55.567 54.1554 55.5134 52.8244 55.803C48.4233 56.7578 45.6216 61.1025 46.577 65.5009C46.8883 66.9384 47.5645 68.2043 48.4877 69.2341C49.3142 69.3521 50.1408 69.4701 50.9673 69.5774C51.0854 69.5882 51.2035 69.6096 51.3216 69.6203C53.0176 69.8349 54.7136 70.0387 56.4204 70.1996C56.5063 70.1996 56.5921 70.2211 56.6673 70.2211C57.5153 70.3069 58.3633 70.382 59.2221 70.4571H59.2328H59.2757Z"/><path fill="#3887E5" d="M87.3032 48.7549C84.3405 50.4928 82.6874 53.9793 83.4496 57.5195C84.4049 61.9178 88.7524 64.7178 93.1535 63.763C94.4845 63.4734 95.6761 62.8726 96.6529 62.0573L98.263 69.4916C110.994 67.9254 123.167 65.1791 135.018 61.1776L133.483 54.0759C134.717 54.4192 136.037 54.4728 137.368 54.1832C141.77 53.2284 144.571 48.8837 143.616 44.4853C142.897 41.149 140.213 38.7353 137.046 38.1774C120.709 44.4531 103.856 47.7358 87.3032 48.7442V48.7549Z"/><path fill="#87E8D5" d="M155.177 29.8956C154.565 32.9852 152.182 35.5813 148.897 36.2894C146.976 36.7077 145.054 36.4074 143.433 35.5706C141.308 36.4932 139.183 37.3729 137.046 38.1882C140.213 38.746 142.897 41.1597 143.616 44.496C144.571 48.8944 141.77 53.2391 137.368 54.1939C136.037 54.4835 134.706 54.4299 133.483 54.0866L135.018 61.1884C144.571 57.9593 153.921 53.9257 163.185 49.0339L154.533 41.3099L164 24.8858C164 24.8858 161.746 26.4735 155.177 29.8956Z"/><path fill="#DD3631" d="M149.96 32.5346C147.802 33.6074 145.623 34.6051 143.433 35.5598C145.054 36.3966 146.976 36.697 148.897 36.2786C152.182 35.5706 154.565 32.9745 155.177 29.8849C153.674 30.668 151.946 31.5477 149.96 32.5239V32.5346Z"/><path stroke="#172A4D" stroke-linecap="round" stroke-linejoin="round" stroke-width=".28" d="M12.5813 38.6173C10.2412 37.2012 8.01918 35.6028 5.93671 33.8006C2.66272 30.9577 0.118676 27.1708 0.140145 26.3984"/><path stroke="#172A4D" stroke-linecap="round" stroke-linejoin="round" stroke-width=".28" d="M17.927 41.4602C16.9287 41.5567 15.9519 41.4602 15.018 41.2027L17.4762 52.5419L28.8224 50.0852C28.4789 51.3189 28.4252 52.6384 28.7151 53.9687C29.6704 58.367 34.0179 61.167 38.419 60.2122C42.8201 59.2574 45.6217 54.9127 44.6664 50.5143C44.4839 49.6776 44.1833 48.9052 43.7754 48.1972"/><path stroke="#172A4D" stroke-linecap="round" stroke-linejoin="round" stroke-width=".28" d="M18.6892 58.0023L17.5084 52.5311L13.1073 53.4859"/><path stroke="#172A4D" stroke-linecap="round" stroke-linejoin="round" stroke-width=".28" d="M43.7862 48.1971C44.1833 48.9052 44.4946 49.6776 44.6771 50.5143C45.6325 54.9127 42.8308 59.2574 38.4297 60.2122C34.0286 61.1669 29.6812 58.367 28.7258 53.9687C28.436 52.6384 28.4897 51.3082 28.8332 50.0852L17.4869 52.5419L18.6677 57.9915"/><path stroke="#172A4D" stroke-linecap="round" stroke-linejoin="round" stroke-width=".28" d="M48.5522 69.2342C47.6291 68.2151 46.9421 66.9385 46.6308 65.5009C45.6754 61.1026 48.4771 56.7579 52.8782 55.8031C54.2093 55.5135 55.5403 55.5671 56.764 55.9104L55.2934 49.109"/><path stroke="#172A4D" stroke-linecap="round" stroke-linejoin="round" stroke-width=".28" d="M98.2632 69.4917L96.653 62.0574C95.6762 62.8727 94.4847 63.4734 93.1536 63.7631C88.7525 64.7178 84.4051 61.9179 83.4497 57.5195C82.6876 53.9794 84.3407 50.4822 87.3034 48.755"/><path stroke="#172A4D" stroke-linecap="round" stroke-linejoin="round" stroke-width=".28" d="M55.2719 49.0983L56.7426 55.9104C55.5081 55.5671 54.1878 55.5134 52.8567 55.8031C48.4556 56.7578 45.6539 61.1026 46.6093 65.5009C46.9206 66.9384 47.5969 68.2043 48.52 69.2342"/><path stroke="#172A4D" stroke-linecap="round" stroke-linejoin="round" stroke-width=".28" d="M55.2719 49.0983L56.7426 55.9104C55.5081 55.5671 54.1878 55.5134 52.8567 55.8031C48.4556 56.7578 45.6539 61.1026 46.6093 65.5009C46.9206 66.9384 47.5969 68.2043 48.52 69.2342"/><path stroke="#172A4D" stroke-linecap="round" stroke-linejoin="round" stroke-width=".28" d="M98.2632 69.4917L96.653 62.0574C95.6762 62.8727 94.4847 63.4734 93.1536 63.7631C88.7525 64.7178 84.4051 61.9179 83.4497 57.5195C82.6876 53.9794 84.3407 50.4822 87.3034 48.755"/><path stroke="#172A4D" stroke-linecap="round" stroke-linejoin="round" stroke-width=".28" d="M135.018 61.1884L133.483 54.0866C134.717 54.4299 136.037 54.4836 137.369 54.1939C141.77 53.2391 144.571 48.8944 143.616 44.4961C142.897 41.1597 140.213 38.746 137.047 38.1882"/><path stroke="#172A4D" stroke-linecap="round" stroke-linejoin="round" stroke-width=".28" d="M87.3034 48.755C84.3407 50.4929 82.6876 53.9794 83.4497 57.5195C84.4051 61.9179 88.7525 64.7178 93.1536 63.7631C94.4847 63.4734 95.6762 62.8727 96.653 62.0574L98.2632 69.4917"/><path stroke="#172A4D" stroke-linecap="round" stroke-linejoin="round" stroke-width=".28" d="M137.047 38.1882C140.213 38.746 142.897 41.1597 143.616 44.4961C144.571 48.8944 141.77 53.2391 137.369 54.1939C136.037 54.4836 134.706 54.4299 133.483 54.0866L135.018 61.1884"/><path stroke="#172A4D" stroke-linecap="round" stroke-linejoin="round" stroke-width=".28" d="M155.177 29.8957C154.565 32.9853 152.182 35.5814 148.897 36.2894C146.976 36.7078 145.054 36.4074 143.433 35.5706"/><path fill="#DD3631" d="M47.6074 5.11462L48.1442 9.57735L36.6154 10.9505C37.1522 11.7336 37.5601 12.624 37.7962 13.5895C34.4686 10.1459 30.7867 7.15289 26.6539 4.76061C22.8969 2.59361 18.4851 1.43502 17.7658 1.70321C18.1416 1.5423 18.528 1.39211 18.9252 1.26337L21.1686 0.63044C21.8127 0.469524 33.5669 -2.27677 47.6074 5.11462Z"/><path fill="#F4C540" d="M37.7962 13.6003C37.5601 12.624 37.1522 11.7336 36.6047 10.9398L48.1335 9.56665L49.5075 21.0882C50.5594 20.3695 51.7939 19.876 53.1464 19.7151C57.6227 19.1787 61.6803 22.3755 62.217 26.849C62.7537 31.3224 59.5548 35.3775 55.0786 35.9139C54.2306 36.0104 53.3933 35.9783 52.599 35.8281C48.595 27.5248 43.786 19.8223 37.7855 13.6003H37.7962Z"/><path fill="#87E8D5" d="M78.7157 43.198C78.8016 43.3911 78.8875 43.5949 78.9733 43.788C78.9733 43.788 78.9733 43.788 78.9733 43.7988C79.2632 44.4639 79.553 45.129 79.8321 45.8048C79.875 45.9121 79.918 46.0194 79.9609 46.1267C80.2078 46.7167 80.4547 47.3067 80.6908 47.8967C80.7445 48.0147 80.7875 48.1327 80.8411 48.2508C81.0988 48.8944 81.3564 49.5381 81.6033 50.1817C81.6247 50.2247 81.6355 50.2783 81.6569 50.3212C81.936 51.04 82.2151 51.7587 82.4835 52.4775C82.4835 52.4775 82.4835 52.4989 82.4942 52.5097C82.7411 53.1748 82.988 53.8399 83.2242 54.505C83.2886 54.6874 83.353 54.8805 83.4174 55.0629C83.5999 55.5671 83.7716 56.0605 83.9434 56.5647C84.0185 56.79 84.0936 57.0046 84.1688 57.2298C84.3405 57.7233 84.5015 58.2168 84.6626 58.7103C84.727 58.9141 84.8021 59.1179 84.8665 59.3217C85.0919 60.0083 85.3066 60.6949 85.5321 61.3922C85.5321 61.3922 85.5321 61.4029 85.5321 61.4137C85.8004 62.2719 86.058 63.1194 86.3157 63.9776C86.4015 64.2672 86.4874 64.5676 86.5733 64.8572C86.7343 65.4151 86.9061 65.9837 87.0671 66.5415C87.1744 66.8955 87.271 67.2603 87.3676 67.6143C87.5072 68.1077 87.6467 68.6012 87.7755 69.0947C87.8829 69.4809 87.9902 69.8778 88.0868 70.264C88.2049 70.7253 88.3337 71.1759 88.4518 71.6372C88.5592 72.0448 88.6665 72.4525 88.7631 72.8601C88.8705 73.2999 88.9778 73.7291 89.0851 74.1689C89.1925 74.5873 89.2891 75.0164 89.3964 75.4348C89.493 75.8531 89.5896 76.2715 89.6863 76.6792C89.7829 77.119 89.8902 77.5481 89.9868 77.988C90.1156 78.5458 90.2337 79.1036 90.3518 79.6615C90.4055 79.8868 90.4484 80.112 90.5021 80.3373L82.9451 81.2385C83.3959 80.0477 83.5784 78.7282 83.4174 77.3765C82.8807 72.903 78.8231 69.7169 74.3468 70.2426C70.7508 70.6717 67.9813 73.375 67.3158 76.7435C67.0796 75.8961 66.8435 75.0486 66.5859 74.2118C66.5537 74.1045 66.5215 73.9865 66.4893 73.8792C66.2316 73.021 65.974 72.1628 65.7056 71.3046C65.4051 70.3498 65.1045 69.3843 64.8039 68.4188C64.7825 68.3545 64.761 68.2794 64.7395 68.215C64.439 67.2495 64.1277 66.2733 63.8164 65.2864C63.8056 65.2434 63.7842 65.1898 63.7734 65.1469C63.4514 64.1385 63.1294 63.1301 62.7966 62.1217C62.4639 61.1133 62.1311 60.0941 61.7876 59.0643C61.7768 59.0214 61.7554 58.9677 61.7446 58.9248C61.4011 57.9057 61.0576 56.8866 60.7034 55.8567C60.7034 55.8352 60.6927 55.8245 60.6819 55.8031C60.3277 54.7732 59.9627 53.7326 59.587 52.7028C59.587 52.692 59.587 52.6813 59.5763 52.6706C59.2113 51.6407 58.8249 50.6216 58.4385 49.5917C58.417 49.5488 58.4063 49.5059 58.3848 49.463C57.9983 48.4331 57.6012 47.4033 57.1933 46.3841L64.1169 45.5581C63.3977 44.5068 62.904 43.2731 62.7429 41.9214C62.2062 37.448 65.4051 33.3929 69.8813 32.8565C71.3412 32.6849 72.7689 32.9101 74.0355 33.4465C74.422 34.1867 74.7977 34.9269 75.1734 35.6779C75.227 35.7852 75.2807 35.8924 75.3344 35.989C76.0965 37.5123 76.8372 39.0571 77.5457 40.6126C77.5779 40.6877 77.6208 40.7628 77.653 40.8379C78.0072 41.6103 78.3615 42.3934 78.705 43.1765L78.7157 43.198Z"/><path fill="#DD3631" d="M67.3265 76.7543C68.0028 73.3858 70.7615 70.6824 74.3575 70.2533C78.8338 69.7169 82.8914 72.9137 83.4281 77.3872C83.5891 78.7389 83.4066 80.0584 82.9558 81.2492L90.5128 80.348C93.1856 92.8887 94.5596 105.29 94.6455 117.788L87.4213 118.646C88.1405 119.697 88.6343 120.931 88.7953 122.283C89.332 126.756 86.1331 130.811 81.6569 131.348C78.2648 131.755 75.1089 130.007 73.5524 127.196C74.1536 109.721 71.7705 92.7171 67.3265 76.7543Z"/><path fill="#F4C540" d="M71.631 147.031C74.3575 145.444 76.0321 142.343 75.6349 139.018C75.3988 137.065 74.4971 135.349 73.1768 134.094C73.3592 131.787 73.4881 129.492 73.5739 127.207C75.1304 130.017 78.2863 131.766 81.6784 131.358C86.1546 130.822 89.3428 126.767 88.8168 122.293C88.6558 120.942 88.1727 119.708 87.4428 118.657L94.667 117.798C94.7314 127.883 93.9693 138.031 92.3591 148.372L82.2259 142.719L69.7847 157.019C69.7847 157.019 70.5468 154.369 71.6417 147.053L71.631 147.031Z"/><path fill="#3887E5" d="M72.4254 141.239C72.7259 138.846 72.9728 136.465 73.166 134.083C74.4864 135.349 75.3988 137.055 75.6242 139.007C76.0214 142.333 74.3468 145.433 71.6203 147.021C71.8672 145.347 72.1355 143.416 72.4146 141.228L72.4254 141.239Z"/><path fill="#87E8D5" d="M53.7046 8.92297L48.1442 9.58809L47.6075 5.12537C49.6041 6.17668 51.6436 7.43182 53.7046 8.9337V8.92297Z"/><path fill="#3887E5" d="M52.6097 35.828C53.404 35.9782 54.2413 36.0104 55.0893 35.9139C59.5656 35.3775 62.7537 31.3224 62.2277 26.8489C61.691 22.3755 57.6334 19.1894 53.1571 19.715C51.8046 19.8759 50.5702 20.3587 49.5182 21.0882L48.1442 9.56661L53.6831 8.90149C55.6583 10.3283 57.6441 11.9803 59.63 13.8791C60.2311 14.4584 60.8322 15.0592 61.4334 15.6814C62.3136 16.5933 63.1831 17.5587 64.0418 18.5564C67.6915 22.8261 71.0728 27.8359 73.9282 33.2319C73.9711 33.307 74.0141 33.3928 74.0463 33.4679C72.7796 32.9316 71.3519 32.6955 69.8813 32.8779C65.4051 33.4143 62.217 37.4694 62.743 41.9428C62.904 43.2945 63.387 44.5282 64.117 45.5795L57.204 46.4056C55.7871 42.8225 54.2628 39.2716 52.599 35.828H52.6097Z"/><path stroke="#172A4D" stroke-linecap="round" stroke-linejoin="round" stroke-width=".28" d="M37.7962 13.6003C37.5601 12.624 37.1522 11.7336 36.6047 10.9398L48.1335 9.56665L49.5075 21.0882C50.5594 20.3695 51.7939 19.876 53.1464 19.7151C57.6227 19.1787 61.6803 22.3755 62.217 26.849C62.7537 31.3224 59.5548 35.3775 55.0786 35.9139C54.2306 36.0104 53.3933 35.9783 52.599 35.8281"/><path stroke="#172A4D" stroke-linecap="round" stroke-linejoin="round" stroke-width=".28" d="M53.7046 8.92296L48.1442 9.57735L47.6075 5.11462"/><path stroke="#172A4D" stroke-linecap="round" stroke-linejoin="round" stroke-width=".28" d="M52.6097 35.828C53.404 35.9782 54.2413 36.0104 55.0893 35.9139C59.5655 35.3775 62.7536 31.3224 62.2277 26.8489C61.6909 22.3755 57.6333 19.1894 53.1571 19.715C51.8046 19.8759 50.5701 20.3587 49.5181 21.0882L48.1441 9.56661L53.6831 8.90149"/><path stroke="#172A4D" stroke-linecap="round" stroke-linejoin="round" stroke-width=".28" d="M74.057 33.4679C72.7903 32.9316 71.3627 32.6955 69.8921 32.8779C65.4158 33.4143 62.2277 37.4694 62.7537 41.9428C62.9147 43.2945 63.3978 44.5282 64.1277 45.5795L57.2147 46.4056"/><path stroke="#172A4D" stroke-linecap="round" stroke-linejoin="round" stroke-width=".28" d="M90.5236 80.348L82.9665 81.2492C83.4174 80.0584 83.5999 78.7389 83.4389 77.3872C82.9021 72.9137 78.8445 69.7276 74.3683 70.2533C70.7723 70.6824 68.0028 73.3858 67.3373 76.7543"/><path stroke="#172A4D" stroke-linecap="round" stroke-linejoin="round" stroke-width=".28" d="M81.0987 48.8729C81.2705 49.3128 81.4422 49.7526 81.614 50.1924C81.6354 50.2353 81.6462 50.289 81.6676 50.3319C81.9467 51.0506 82.2258 51.7694 82.4942 52.4882C82.4942 52.4882 82.4942 52.5096 82.5049 52.5203C82.7518 53.1855 82.9987 53.8506 83.2349 54.5157C83.2993 54.6981 83.3637 54.8912 83.4281 55.0735C83.6106 55.5777 83.7823 56.0712 83.9541 56.5754C84.0292 56.8007 84.1043 57.0153 84.1795 57.2405C84.3512 57.734 84.5123 58.2275 84.6733 58.721C84.7377 58.9248 84.8128 59.1286 84.8772 59.3324C85.1026 60.019 85.3173 60.7056 85.5428 61.4029C85.5428 61.4029 85.5428 61.4136 85.5428 61.4243C85.8111 62.2826 86.0687 63.13 86.3264 63.9883C86.4122 64.2779 86.4981 64.5783 86.584 64.8679C86.745 65.4258 86.9168 65.9943 87.0778 66.5522C87.1851 66.9062 87.2817 67.2709 87.3783 67.625C87.5179 68.1184 87.6574 68.6119 87.7862 69.1054C87.8936 69.4916 88.0009 69.8885 88.0975 70.2747C88.0975 70.2854 88.0975 70.3069 88.1083 70.3176"/><path stroke="#172A4D" stroke-linecap="round" stroke-linejoin="round" stroke-width=".28" d="M57.2147 46.3841L64.1384 45.5581C63.4192 44.5068 62.9254 43.2731 62.7644 41.9214C62.2277 37.448 65.4266 33.3929 69.9028 32.8565C71.3627 32.6849 72.7903 32.9101 74.057 33.4465"/><path stroke="#172A4D" stroke-linecap="round" stroke-linejoin="round" stroke-width=".28" d="M65.5446 70.736C65.3084 69.9743 65.0615 69.2019 64.8254 68.4295C64.8039 68.3652 64.7824 68.2901 64.7609 68.2257C64.4604 67.2602 64.1491 66.284 63.8378 65.2971C63.8271 65.2541 63.8056 65.2005 63.7949 65.1576C63.4728 64.1492 63.1508 63.1408 62.818 62.1324C62.4853 61.124 62.1525 60.1048 61.809 59.075C61.7983 59.0321 61.7768 58.9784 61.7661 58.9355C61.4226 57.9164 61.0791 56.8973 60.7248 55.8674C60.7248 55.846 60.7141 55.8352 60.7033 55.8138C60.3491 54.7839 59.9841 53.7433 59.6084 52.7135C59.6084 52.7027 59.6084 52.692 59.5977 52.6813C59.2327 51.6514 58.8463 50.6323 58.4599 49.6024C58.4384 49.5595 58.4277 49.5166 58.4062 49.4737C58.3632 49.3557 58.3203 49.2377 58.2666 49.1089"/><path stroke="#172A4D" stroke-linecap="round" stroke-linejoin="round" stroke-width=".28" d="M57.2147 46.3841L64.1384 45.5581C63.4192 44.5068 62.9254 43.2731 62.7644 41.9214C62.2277 37.448 65.4266 33.3929 69.9028 32.8565C71.3627 32.6849 72.7903 32.9101 74.057 33.4465"/><path stroke="#172A4D" stroke-linecap="round" stroke-linejoin="round" stroke-width=".28" d="M90.5236 80.348L82.9665 81.2492C83.4174 80.0584 83.5999 78.7389 83.4389 77.3872C82.9021 72.9137 78.8445 69.7276 74.3683 70.2533C70.7723 70.6824 68.0028 73.3858 67.3373 76.7543"/><path stroke="#172A4D" stroke-linecap="round" stroke-linejoin="round" stroke-width=".28" d="M94.6455 117.777L87.4213 118.635C88.1405 119.687 88.6343 120.92 88.7953 122.272C89.332 126.745 86.1331 130.8 81.6569 131.337C78.2648 131.745 75.1089 129.996 73.5524 127.185"/><path stroke="#172A4D" stroke-linecap="round" stroke-linejoin="round" stroke-width=".28" d="M67.3265 76.7543C68.0028 73.3858 70.7615 70.6824 74.3576 70.2533C78.8338 69.7169 82.8914 72.9137 83.4281 77.3872C83.5891 78.7389 83.4067 80.0584 82.9558 81.2492L90.5128 80.348"/><path stroke="#172A4D" stroke-linecap="round" stroke-linejoin="round" stroke-width=".28" d="M73.5524 127.196C75.1089 130.007 78.2648 131.755 81.6569 131.348C86.1331 130.811 89.3213 126.756 88.7953 122.283C88.6343 120.931 88.1512 119.697 87.4213 118.646L94.6455 117.788"/><path stroke="#172A4D" stroke-linecap="round" stroke-linejoin="round" stroke-width=".28" d="M71.631 147.031C74.3576 145.444 76.0321 142.343 75.635 139.018C75.3988 137.065 74.4971 135.349 73.1768 134.094"/><path stroke="#172A4D" stroke-linecap="round" stroke-linejoin="round" stroke-width=".28" d="M33.3414 9.44862C31.2482 7.71073 29.0262 6.13376 26.6539 4.77134C22.8969 2.60434 18.485 1.44575 17.7658 1.71395"/></svg>