<svg xmlns="http://www.w3.org/2000/svg" width="100" height="157" fill="none" viewBox="0 0 100 157"><path fill="#87E8D5" d="M85.4656 28.2221C89.1046 25.5724 89.9097 20.466 87.2475 16.8293C86.4425 15.7244 85.412 14.8876 84.2741 14.319L91.9277 8.74063C84.317 0.104821 76.4487 -0.292103 71.0064 1.0274L70.8561 1.05959L63.1918 8.06478L64.9093 8.71917C71.4465 11.2187 76.5346 15.2094 80.8928 21.2706C82.5888 23.6736 83.9306 26.0766 84.9611 28.5332C85.1329 28.426 85.2939 28.3187 85.4549 28.2007L85.4656 28.2221Z"/><path fill="#3887E5" d="M96.7904 37.2978C100.054 32.245 102.351 23.931 95.0193 12.8064L94.4396 11.9589L94.3001 11.7765L94.1605 11.5727L93.5594 10.7467H93.5487C93.0012 10.0387 92.443 9.37354 91.8956 8.7406L84.2419 14.3083C85.3905 14.8768 86.4103 15.7136 87.2154 16.8186C89.8668 20.4553 89.0724 25.5616 85.4335 28.2114C85.2724 28.3294 85.1114 28.4367 84.9504 28.5332C86.5498 32.3308 87.3764 36.2572 87.5052 40.5053L87.5589 42.3505L96.6938 37.4265L96.7797 37.2978H96.7904Z"/><path stroke="#172A4D" stroke-linecap="round" stroke-linejoin="round" stroke-width=".28" d="M84.9719 28.5547C85.1436 28.4474 85.3047 28.3401 85.4657 28.2221C89.1046 25.5724 89.9097 20.466 87.2476 16.8293C86.4425 15.7243 85.412 14.8876 84.2742 14.319L91.9278 8.7406"/><path fill="#F4C540" d="M86.8934 53.4859L82.4922 52.5311L84.9504 41.1919C84.0273 41.4494 83.0612 41.5352 82.0736 41.4494C86.421 39.4326 90.4572 36.9223 94.0532 33.8006C97.3272 30.9577 99.8712 27.1708 99.8498 26.3984C99.8712 26.8061 99.8927 27.2245 99.8927 27.6321L99.7639 29.96C99.7102 30.6252 98.4758 42.6187 86.8934 53.4752V53.4859Z"/><path fill="#87E8D5" d="M82.0736 41.4601C83.0719 41.5567 84.0487 41.4601 84.9826 41.2026L82.5244 52.5418L71.1782 50.0852C71.5217 51.3189 71.5754 52.6384 71.2855 53.9686C70.3302 58.367 65.9828 61.1669 61.5817 60.2121C57.1806 59.2574 54.3789 54.9126 55.3342 50.5143C55.5167 49.6775 55.8173 48.9051 56.2252 48.1971C65.3816 47.1136 74.2375 45.0968 82.0843 41.4494L82.0736 41.4601Z"/><path fill="#3887E5" d="M81.3114 58.0022L82.5029 52.5311L86.904 53.4858C85.2617 55.0306 83.4046 56.5432 81.3221 58.0022H81.3114Z"/><path fill="#DD3631" d="M56.2144 48.1971C55.8173 48.9051 55.506 49.6775 55.3235 50.5143C54.3681 54.9126 57.1698 59.2573 61.5709 60.2121C65.972 61.1669 70.3194 58.367 71.2748 53.9686C71.5646 52.6384 71.5109 51.3081 71.1674 50.0852L82.5137 52.5418L81.3329 57.9915C79.3363 59.3861 77.1358 60.727 74.6883 61.9929C73.9477 62.3791 73.1855 62.7439 72.4019 63.1086C71.2533 63.645 70.0511 64.1492 68.8274 64.6319C63.5997 66.6916 57.7602 68.2472 51.7167 69.1912C51.6309 69.2019 51.545 69.2127 51.4484 69.2341C52.3715 68.215 53.0585 66.9384 53.3698 65.5009C54.3252 61.1025 51.5235 56.7578 47.1224 55.803C45.7914 55.5134 44.4603 55.567 43.2366 55.9103L44.7072 49.1089C48.5608 48.9373 52.4145 48.6584 56.2144 48.2078V48.1971Z"/><path fill="#F4C540" d="M40.7247 70.4571C40.5101 70.4785 40.2954 70.4893 40.0807 70.5107C40.0807 70.5107 40.0807 70.5107 40.0699 70.5107C39.34 70.5644 38.6208 70.618 37.8909 70.6716C37.7728 70.6716 37.6654 70.6824 37.5474 70.6931C36.914 70.736 36.27 70.7682 35.6366 70.8004C35.5078 70.8004 35.379 70.8111 35.2502 70.8218C34.5632 70.854 33.8655 70.8862 33.1785 70.9184C33.1248 70.9184 33.0819 70.9184 33.0282 70.9184C32.2553 70.9506 31.4824 70.972 30.7203 70.9935C30.7096 70.9935 30.6988 70.9935 30.6881 70.9935C29.9796 71.0149 29.2712 71.0257 28.5627 71.0257C28.3695 71.0257 28.1655 71.0257 27.9723 71.0257C27.4463 71.0257 26.9096 71.0257 26.3836 71.0257C26.1474 71.0257 25.9113 71.0257 25.6751 71.0257C25.1599 71.0257 24.6339 71.0257 24.1186 71.0149C23.904 71.0149 23.6893 71.0149 23.4746 71.0149C22.7554 71.0042 22.0254 70.9828 21.3062 70.9613C21.3062 70.9613 21.2955 70.9613 21.2848 70.9613C20.3938 70.9291 19.4921 70.8969 18.6119 70.8647C18.3006 70.854 18 70.8326 17.6887 70.8218C17.1091 70.7896 16.5187 70.7682 15.939 70.736C15.5633 70.7146 15.1984 70.6931 14.8227 70.6716C14.3074 70.6395 13.8029 70.6073 13.2984 70.5751C12.8905 70.5536 12.4933 70.5215 12.0854 70.4893C11.6131 70.4571 11.1408 70.4142 10.6685 70.382C10.2498 70.3498 9.83117 70.3176 9.40179 70.2747C8.95095 70.2318 8.51084 70.1996 8.06 70.1567C7.63062 70.1138 7.19051 70.0816 6.76114 70.0387C6.33176 69.9958 5.91313 69.9529 5.48375 69.91C5.04364 69.8671 4.59279 69.8242 4.15268 69.7705C3.58376 69.7062 3.01484 69.6418 2.44592 69.5667C2.22049 69.5345 1.98433 69.5131 1.75891 69.4916L3.36907 62.0573C4.3459 62.8726 5.53741 63.4734 6.86848 63.763C11.2696 64.7178 15.617 61.9178 16.5724 57.5195C17.3345 53.9793 15.6814 50.4821 12.7187 48.7549C13.5989 48.8086 14.4792 48.8515 15.3486 48.8944C15.4667 48.8944 15.5741 48.9051 15.6921 48.9159C16.5938 48.9588 17.4848 48.991 18.3865 49.0231C19.3848 49.0553 20.3938 49.0875 21.4136 49.109C21.4887 49.109 21.5531 49.109 21.6283 49.109C22.648 49.1411 23.6678 49.1626 24.6983 49.184C24.752 49.184 24.7949 49.184 24.8486 49.184C25.9005 49.2055 26.9633 49.227 28.0367 49.2484C29.0994 49.2699 30.1728 49.2806 31.257 49.2913C31.3107 49.2913 31.3536 49.2913 31.4073 49.2913C32.4807 49.2913 33.5649 49.3021 34.6491 49.3021C34.6706 49.3021 34.692 49.3021 34.7027 49.3021C35.7977 49.3021 36.8926 49.3021 37.9982 49.2806C38.0089 49.2806 38.0197 49.2806 38.0304 49.2806C39.1253 49.2699 40.2202 49.2484 41.3151 49.2162C41.3581 49.2162 41.4117 49.2162 41.4547 49.2162C42.5496 49.1841 43.6552 49.1519 44.7609 49.0982L43.2903 55.9103C44.5247 55.567 45.845 55.5134 47.1761 55.803C51.5772 56.7578 54.3789 61.1025 53.4235 65.5009C53.1122 66.9384 52.436 68.2043 51.5128 69.2341C50.6863 69.3521 49.8597 69.4701 49.0332 69.5774C48.9151 69.5882 48.797 69.6096 48.6789 69.6203C46.9829 69.8349 45.2869 70.0387 43.5801 70.1996C43.4942 70.1996 43.4083 70.2211 43.3332 70.2211C42.4852 70.3069 41.6372 70.382 40.7784 70.4571H40.7677H40.7247Z"/><path fill="#3887E5" d="M12.6973 48.7549C15.6599 50.4928 17.313 53.9793 16.5509 57.5195C15.5955 61.9178 11.2481 64.7178 6.84702 63.763C5.51595 63.4734 4.32444 62.8726 3.34761 62.0573L1.73745 69.4916C-10.9935 67.9254 -23.1663 65.1791 -35.0171 61.1776L-33.4821 54.0759C-34.7165 54.4192 -36.0369 54.4728 -37.3679 54.1832C-41.769 53.2284 -44.5707 48.8837 -43.6153 44.4853C-42.8961 41.149 -40.2125 38.7353 -37.0459 38.1774C-20.7082 44.4531 -3.85518 47.7358 12.6973 48.7442V48.7549Z"/><path stroke="#172A4D" stroke-linecap="round" stroke-linejoin="round" stroke-width=".28" d="M87.4192 38.6173C89.7593 37.2012 91.9813 35.6028 94.0638 33.8006C97.3378 30.9577 99.8818 27.1708 99.8603 26.3984"/><path stroke="#172A4D" stroke-linecap="round" stroke-linejoin="round" stroke-width=".28" d="M82.0735 41.4602C83.0718 41.5567 84.0486 41.4602 84.9825 41.2027L82.5243 52.5419L71.1781 50.0852C71.5216 51.3189 71.5752 52.6384 71.2854 53.9687C70.3301 58.367 65.9826 61.167 61.5815 60.2122C57.1804 59.2574 54.3788 54.9127 55.3341 50.5143C55.5166 49.6776 55.8172 48.9052 56.2251 48.1972"/><path stroke="#172A4D" stroke-linecap="round" stroke-linejoin="round" stroke-width=".28" d="M81.3113 58.0023L82.4921 52.5311L86.8932 53.4859"/><path stroke="#172A4D" stroke-linecap="round" stroke-linejoin="round" stroke-width=".28" d="M56.2143 48.1971C55.8171 48.9052 55.5059 49.6776 55.3234 50.5143C54.368 54.9127 57.1697 59.2574 61.5708 60.2122C65.9719 61.1669 70.3193 58.367 71.2747 53.9687C71.5645 52.6384 71.5108 51.3082 71.1673 50.0852L82.5136 52.5419L81.3328 57.9915"/><path stroke="#172A4D" stroke-linecap="round" stroke-linejoin="round" stroke-width=".28" d="M51.4483 69.2342C52.3714 68.2151 53.0584 66.9385 53.3697 65.5009C54.3251 61.1026 51.5234 56.7579 47.1223 55.8031C45.7912 55.5135 44.4602 55.5671 43.2365 55.9104L44.7071 49.109"/><path stroke="#172A4D" stroke-linecap="round" stroke-linejoin="round" stroke-width=".28" d="M1.7373 69.4917L3.34746 62.0574C4.32429 62.8727 5.51581 63.4734 6.84687 63.7631C11.248 64.7178 15.5954 61.9179 16.5508 57.5195C17.3129 53.9794 15.6598 50.4822 12.6971 48.755"/><path stroke="#172A4D" stroke-linecap="round" stroke-linejoin="round" stroke-width=".28" d="M44.7285 49.0983L43.2579 55.9104C44.4924 55.5671 45.8127 55.5134 47.1438 55.8031C51.5449 56.7578 54.3466 61.1026 53.3912 65.5009C53.0799 66.9384 52.4036 68.2043 51.4805 69.2342"/><path stroke="#172A4D" stroke-linecap="round" stroke-linejoin="round" stroke-width=".28" d="M44.7285 49.0983L43.2579 55.9104C44.4924 55.5671 45.8127 55.5134 47.1438 55.8031C51.5449 56.7578 54.3466 61.1026 53.3912 65.5009C53.0799 66.9384 52.4036 68.2043 51.4805 69.2342"/><path stroke="#172A4D" stroke-linecap="round" stroke-linejoin="round" stroke-width=".28" d="M1.7373 69.4917L3.34746 62.0574C4.32429 62.8727 5.51581 63.4734 6.84687 63.7631C11.248 64.7178 15.5954 61.9179 16.5508 57.5195C17.3129 53.9794 15.6598 50.4822 12.6971 48.755"/><path stroke="#172A4D" stroke-linecap="round" stroke-linejoin="round" stroke-width=".28" d="M12.6971 48.755C15.6598 50.4929 17.3129 53.9794 16.5508 57.5195C15.5954 61.9179 11.248 64.7178 6.84687 63.7631C5.51581 63.4734 4.32429 62.8727 3.34746 62.0574L1.7373 69.4917"/><path fill="#DD3631" d="M52.393 5.11462L51.8563 9.57735L63.3851 10.9505C62.8483 11.7336 62.4404 12.624 62.2043 13.5895C65.5319 10.1459 69.2138 7.15289 73.3466 4.76061C77.1036 2.59361 81.5154 1.43502 82.2346 1.70321C81.8589 1.5423 81.4725 1.39211 81.0753 1.26337L78.8318 0.63044C78.1878 0.469524 66.4336 -2.27677 52.393 5.11462Z"/><path fill="#F4C540" d="M62.2043 13.6002C62.4404 12.624 62.8483 11.7336 63.3958 10.9397L51.867 9.56659L50.493 21.0881C49.4411 20.3694 48.2066 19.8759 46.8541 19.715C42.3778 19.1786 38.3202 22.3755 37.7835 26.8489C37.2468 31.3224 40.4456 35.3775 44.9219 35.9138C45.7699 36.0104 46.6072 35.9782 47.4015 35.828C51.4055 27.5248 56.2145 19.8223 62.215 13.6002H62.2043Z"/><path fill="#87E8D5" d="M21.2848 43.198C21.1989 43.3911 21.113 43.5949 21.0271 43.788C21.0271 43.788 21.0271 43.788 21.0271 43.7988C20.7373 44.4639 20.4475 45.129 20.1684 45.8048C20.1255 45.9121 20.0825 46.0194 20.0396 46.1267C19.7927 46.7167 19.5458 47.3067 19.3096 47.8967C19.256 48.0147 19.213 48.1327 19.1594 48.2508C18.9017 48.8944 18.6441 49.5381 18.3972 50.1817C18.3758 50.2247 18.365 50.2783 18.3435 50.3212C18.0645 51.04 17.7854 51.7587 17.517 52.4775C17.517 52.4775 17.517 52.4989 17.5063 52.5097C17.2594 53.1748 17.0125 53.8399 16.7763 54.505C16.7119 54.6874 16.6475 54.8805 16.5831 55.0629C16.4006 55.5671 16.2289 56.0605 16.0571 56.5647C15.982 56.79 15.9068 57.0046 15.8317 57.2298C15.66 57.7233 15.4989 58.2168 15.3379 58.7103C15.2735 58.9141 15.1984 59.1179 15.134 59.3217C14.9085 60.0083 14.6939 60.6949 14.4684 61.3922C14.4684 61.3922 14.4684 61.4029 14.4684 61.4137C14.2001 62.2719 13.9425 63.1194 13.6848 63.9776C13.599 64.2672 13.5131 64.5676 13.4272 64.8572C13.2662 65.4151 13.0944 65.9837 12.9334 66.5415C12.8261 66.8955 12.7295 67.2603 12.6329 67.6143C12.4933 68.1077 12.3538 68.6012 12.2249 69.0947C12.1176 69.4809 12.0103 69.8778 11.9137 70.264C11.7956 70.7253 11.6668 71.1759 11.5487 71.6372C11.4413 72.0448 11.334 72.4525 11.2374 72.8601C11.13 73.2999 11.0227 73.7291 10.9154 74.1689C10.808 74.5873 10.7114 75.0164 10.6041 75.4348C10.5074 75.8531 10.4108 76.2715 10.3142 76.6792C10.2176 77.119 10.1103 77.5481 10.0137 77.988C9.88485 78.5458 9.76677 79.1036 9.64869 79.6615C9.59502 79.8868 9.55209 80.112 9.49841 80.3373L17.0554 81.2385C16.6046 80.0477 16.4221 78.7282 16.5831 77.3765C17.1198 72.903 21.1774 69.7169 25.6537 70.2426C29.2497 70.6717 32.0192 73.375 32.6847 76.7435C32.9208 75.8961 33.157 75.0486 33.4146 74.2118C33.4468 74.1045 33.479 73.9865 33.5112 73.8792C33.7689 73.021 34.0265 72.1628 34.2948 71.3046C34.5954 70.3498 34.896 69.3843 35.1965 68.4188C35.218 68.3545 35.2395 68.2794 35.2609 68.215C35.5615 67.2495 35.8728 66.2733 36.1841 65.2864C36.1948 65.2434 36.2163 65.1898 36.227 65.1469C36.5491 64.1385 36.8711 63.1301 37.2039 62.1217C37.5366 61.1133 37.8694 60.0941 38.2129 59.0643C38.2236 59.0214 38.2451 58.9677 38.2558 58.9248C38.5993 57.9057 38.9428 56.8866 39.2971 55.8567C39.2971 55.8352 39.3078 55.8245 39.3185 55.8031C39.6728 54.7732 40.0377 53.7326 40.4134 52.7028C40.4134 52.692 40.4135 52.6813 40.4242 52.6706C40.7892 51.6407 41.1756 50.6216 41.562 49.5917C41.5835 49.5488 41.5942 49.5059 41.6157 49.463C42.0021 48.4331 42.3993 47.4033 42.8072 46.3841L35.8835 45.5581C36.6027 44.5068 37.0965 43.2731 37.2575 41.9214C37.7943 37.448 34.5954 33.3929 30.1192 32.8565C28.6593 32.6849 27.2316 32.9101 25.965 33.4465C25.5785 34.1867 25.2028 34.9269 24.8271 35.6779C24.7734 35.7852 24.7198 35.8924 24.6661 35.989C23.904 37.5123 23.1633 39.0571 22.4548 40.6126C22.4226 40.6877 22.3797 40.7628 22.3475 40.8379C21.9932 41.6103 21.639 42.3934 21.2955 43.1765L21.2848 43.198Z"/><path fill="#DD3631" d="M32.674 76.7543C31.9977 73.3858 29.239 70.6824 25.643 70.2533C21.1667 69.7169 17.1091 72.9137 16.5724 77.3872C16.4114 78.7389 16.5939 80.0584 17.0447 81.2492L9.48772 80.348C6.81486 92.8887 5.44086 105.29 5.35498 117.788L12.5792 118.646C11.86 119.697 11.3662 120.931 11.2052 122.283C10.6685 126.756 13.8673 130.811 18.3436 131.348C21.7357 131.755 24.8916 130.007 26.4481 127.196C25.8469 109.721 28.23 92.7171 32.674 76.7543Z"/><path fill="#F4C540" d="M28.3695 147.031C25.6429 145.444 23.9684 142.343 24.3656 139.018C24.6017 137.065 25.5034 135.349 26.8237 134.094C26.6412 131.787 26.5124 129.492 26.4265 127.207C24.8701 130.017 21.7142 131.766 18.3221 131.358C13.8459 130.822 10.6577 126.767 11.1837 122.293C11.3447 120.942 11.8278 119.708 12.5577 118.657L5.33347 117.798C5.26907 127.883 6.03121 138.031 7.64137 148.372L17.7746 142.719L30.2158 157.019C30.2158 157.019 29.4537 154.369 28.3587 147.053L28.3695 147.031Z"/><path fill="#3887E5" d="M27.5751 141.239C27.2746 138.846 27.0277 136.465 26.8345 134.083C25.5141 135.349 24.6017 137.055 24.3763 139.007C23.9791 142.333 25.6537 145.433 28.3802 147.021C28.1333 145.347 27.8649 143.416 27.5859 141.228L27.5751 141.239Z"/><path fill="#87E8D5" d="M46.2959 8.92297L51.8563 9.58809L52.393 5.12537C50.3964 6.17668 48.3569 7.43182 46.2959 8.9337V8.92297Z"/><path fill="#3887E5" d="M47.3908 35.828C46.5964 35.9782 45.7592 36.0104 44.9111 35.9139C40.4349 35.3775 37.2468 31.3224 37.7728 26.8489C38.3095 22.3755 42.3671 19.1894 46.8433 19.715C48.1959 19.8759 49.4303 20.3587 50.4823 21.0882L51.8563 9.56661L46.3174 8.90149C44.3422 10.3283 42.3564 11.9803 40.3705 13.8791C39.7694 14.4584 39.1683 15.0592 38.5671 15.6814C37.6869 16.5933 36.8174 17.5587 35.9587 18.5564C32.309 22.8261 28.9276 27.8359 26.0723 33.2319C26.0294 33.307 25.9864 33.3928 25.9542 33.4679C27.2209 32.9316 28.6486 32.6955 30.1192 32.8779C34.5954 33.4143 37.7835 37.4694 37.2575 41.9428C37.0965 43.2945 36.6135 44.5282 35.8835 45.5795L42.7965 46.4056C44.2134 42.8225 45.7377 39.2716 47.4015 35.828H47.3908Z"/><path stroke="#172A4D" stroke-linecap="round" stroke-linejoin="round" stroke-width=".28" d="M62.2044 13.6003C62.4405 12.624 62.8484 11.7336 63.3959 10.9398L51.8672 9.56665L50.4932 21.0882C49.4412 20.3695 48.2067 19.876 46.8542 19.7151C42.378 19.1787 38.3204 22.3755 37.7836 26.849C37.2469 31.3224 40.4458 35.3775 44.922 35.9139C45.77 36.0104 46.6073 35.9783 47.4016 35.8281"/><path stroke="#172A4D" stroke-linecap="round" stroke-linejoin="round" stroke-width=".28" d="M46.2959 8.92296L51.8563 9.57735L52.393 5.11462"/><path stroke="#172A4D" stroke-linecap="round" stroke-linejoin="round" stroke-width=".28" d="M47.3908 35.828C46.5965 35.9782 45.7592 36.0104 44.9112 35.9139C40.435 35.3775 37.2468 31.3224 37.7728 26.8489C38.3095 22.3755 42.3671 19.1894 46.8434 19.715C48.1959 19.8759 49.4304 20.3587 50.4823 21.0882L51.8563 9.56661L46.3174 8.90149"/><path stroke="#172A4D" stroke-linecap="round" stroke-linejoin="round" stroke-width=".28" d="M25.9435 33.4679C27.2101 32.9316 28.6378 32.6955 30.1084 32.8779C34.5847 33.4143 37.7728 37.4694 37.2468 41.9428C37.0858 43.2945 36.6027 44.5282 35.8728 45.5795L42.7857 46.4056"/><path stroke="#172A4D" stroke-linecap="round" stroke-linejoin="round" stroke-width=".28" d="M9.47693 80.348L17.0339 81.2492C16.5831 80.0584 16.4006 78.7389 16.5616 77.3872C17.0984 72.9137 21.1559 69.7276 25.6322 70.2533C29.2282 70.6824 31.9977 73.3858 32.6632 76.7543"/><path stroke="#172A4D" stroke-linecap="round" stroke-linejoin="round" stroke-width=".28" d="M18.9018 48.8729C18.73 49.3128 18.5583 49.7526 18.3865 50.1924C18.3651 50.2353 18.3543 50.289 18.3328 50.3319C18.0538 51.0506 17.7747 51.7694 17.5063 52.4882C17.5063 52.4882 17.5063 52.5096 17.4956 52.5203C17.2487 53.1855 17.0018 53.8506 16.7656 54.5157C16.7012 54.6981 16.6368 54.8912 16.5724 55.0735C16.3899 55.5777 16.2182 56.0712 16.0464 56.5754C15.9713 56.8007 15.8961 57.0153 15.821 57.2405C15.6493 57.734 15.4882 58.2275 15.3272 58.721C15.2628 58.9248 15.1877 59.1286 15.1233 59.3324C14.8978 60.019 14.6832 60.7056 14.4577 61.4029C14.4577 61.4029 14.4577 61.4136 14.4577 61.4243C14.1894 62.2826 13.9317 63.13 13.6741 63.9883C13.5882 64.2779 13.5024 64.5783 13.4165 64.8679C13.2555 65.4258 13.0837 65.9943 12.9227 66.5522C12.8154 66.9062 12.7188 67.2709 12.6222 67.625C12.4826 68.1184 12.3431 68.6119 12.2142 69.1054C12.1069 69.4916 11.9996 69.8885 11.9029 70.2747C11.9029 70.2854 11.9029 70.3069 11.8922 70.3176"/><path stroke="#172A4D" stroke-linecap="round" stroke-linejoin="round" stroke-width=".28" d="M42.7857 46.3841L35.8621 45.5581C36.5813 44.5068 37.075 43.2731 37.2361 41.9214C37.7728 37.448 34.5739 33.3929 30.0977 32.8565C28.6378 32.6849 27.2101 32.9101 25.9435 33.4465"/><path stroke="#172A4D" stroke-linecap="round" stroke-linejoin="round" stroke-width=".28" d="M34.4559 70.736C34.6921 69.9743 34.939 69.2019 35.1751 68.4295C35.1966 68.3652 35.2181 68.2901 35.2395 68.2257C35.5401 67.2602 35.8514 66.284 36.1627 65.2971C36.1734 65.2541 36.1949 65.2005 36.2056 65.1576C36.5277 64.1492 36.8497 63.1408 37.1825 62.1324C37.5152 61.124 37.848 60.1048 38.1915 59.075C38.2022 59.0321 38.2237 58.9784 38.2344 58.9355C38.5779 57.9164 38.9214 56.8973 39.2757 55.8674C39.2757 55.846 39.2864 55.8352 39.2971 55.8138C39.6514 54.7839 40.0163 53.7433 40.392 52.7135C40.392 52.7027 40.3921 52.692 40.4028 52.6813C40.7678 51.6514 41.1542 50.6323 41.5406 49.6024C41.5621 49.5595 41.5728 49.5166 41.5943 49.4737C41.6372 49.3557 41.6802 49.2377 41.7338 49.1089"/><path stroke="#172A4D" stroke-linecap="round" stroke-linejoin="round" stroke-width=".28" d="M42.7857 46.3841L35.8621 45.5581C36.5813 44.5068 37.075 43.2731 37.2361 41.9214C37.7728 37.448 34.5739 33.3929 30.0977 32.8565C28.6378 32.6849 27.2101 32.9101 25.9435 33.4465"/><path stroke="#172A4D" stroke-linecap="round" stroke-linejoin="round" stroke-width=".28" d="M9.47693 80.348L17.0339 81.2492C16.5831 80.0584 16.4006 78.7389 16.5616 77.3872C17.0984 72.9137 21.1559 69.7276 25.6322 70.2533C29.2282 70.6824 31.9977 73.3858 32.6632 76.7543"/><path stroke="#172A4D" stroke-linecap="round" stroke-linejoin="round" stroke-width=".28" d="M5.35498 117.777L12.5792 118.635C11.86 119.687 11.3662 120.92 11.2052 122.272C10.6685 126.745 13.8673 130.8 18.3436 131.337C21.7357 131.745 24.8916 129.996 26.4481 127.185"/><path stroke="#172A4D" stroke-linecap="round" stroke-linejoin="round" stroke-width=".28" d="M32.6739 76.7543C31.9977 73.3858 29.2389 70.6824 25.6429 70.2533C21.1667 69.7169 17.1091 72.9137 16.5724 77.3872C16.4114 78.7389 16.5938 80.0584 17.0447 81.2492L9.48767 80.348"/><path stroke="#172A4D" stroke-linecap="round" stroke-linejoin="round" stroke-width=".28" d="M26.4481 127.196C24.8916 130.007 21.7357 131.755 18.3436 131.348C13.8673 130.811 10.6792 126.756 11.2052 122.283C11.3662 120.931 11.8493 119.697 12.5792 118.646L5.35498 117.788"/><path stroke="#172A4D" stroke-linecap="round" stroke-linejoin="round" stroke-width=".28" d="M28.3695 147.031C25.6429 145.444 23.9684 142.343 24.3655 139.018C24.6017 137.065 25.5034 135.349 26.8237 134.094"/><path stroke="#172A4D" stroke-linecap="round" stroke-linejoin="round" stroke-width=".28" d="M66.6591 9.44862C68.7523 7.71073 70.9743 6.13376 73.3466 4.77134C77.1036 2.60434 81.5154 1.44575 82.2346 1.71395"/></svg>