<svg xmlns="http://www.w3.org/2000/svg" width="153" height="148" fill="none" viewBox="0 0 153 148"><path fill="#DD3631" d="M100.639 57.3428C103.222 51.9394 100.948 45.4812 95.5772 42.9142C94.283 42.2957 92.92 41.9636 91.561 41.8844L93.0918 38.6813C91.1633 32.0002 87.5936 19.9614 75.7422 14.2973C57.2716 5.46972 37.4496 17.5286 29.6845 33.7759C27.3284 38.7058 26.1415 43.898 25.9272 49.3839L45.3222 58.6533C45.2674 56.962 45.5972 55.2264 46.3782 53.5924C48.9606 48.189 55.4139 45.9015 60.785 48.4685C66.156 51.0355 68.4251 57.503 65.8471 62.8971C65.0662 64.5311 63.9321 65.8823 62.5724 66.8976L76.43 73.5205L82.8949 59.9934C83.8101 61.0011 84.9154 61.8486 86.2189 62.4716C91.5992 65.043 98.0477 62.7418 100.626 57.3477L100.639 57.3428Z"/><path fill="#F4C540" d="M65.8564 62.9015C68.4388 57.4981 66.1653 51.0398 60.7942 48.4729C55.4231 45.9059 48.9654 48.2026 46.3874 53.5968C45.6065 55.2308 45.2674 56.9619 45.3314 58.6576L25.9272 49.3839C25.1891 68.4877 36.2928 91.2325 51.2897 119.328C51.7959 120.288 52.5921 121.022 53.5165 121.464L61.4945 104.771C59.8076 104.832 58.0778 104.507 56.4507 103.729C51.0704 101.158 48.8106 94.6946 51.3886 89.3004C53.9666 83.9063 60.4243 81.6096 65.7954 84.1765C67.4224 84.9541 68.7662 86.0868 69.7743 87.4467L76.4255 73.5297L62.568 66.9068C63.9184 65.8871 65.0617 64.5403 65.8427 62.9063L65.8564 62.9015Z"/><path fill="#3887E5" d="M107.547 88.3922C107.602 90.0835 107.272 91.819 106.491 93.4531C103.909 98.8565 97.4553 101.144 92.0842 98.577C86.7132 96.01 84.4441 89.5425 87.0221 84.1484C87.803 82.5143 88.9371 81.1631 90.2968 80.1479L76.4392 73.525L69.7879 87.442C68.7755 86.0913 67.4361 84.9494 65.8091 84.1718C60.4288 81.6004 53.9803 83.9016 51.4023 89.2957C48.8243 94.6898 51.0934 101.157 56.4644 103.724C58.0915 104.502 59.8168 104.836 61.5082 104.766L53.5302 121.459C54.4639 121.906 55.5259 122.06 56.6005 121.855C87.8773 115.886 112.545 110.226 126.946 97.6523L107.551 88.3829L107.547 88.3922Z"/><path fill="#87E8D5" d="M122.954 36.8609C111.102 31.1968 99.4975 35.9947 93.0919 38.6813L91.561 41.8844C92.92 41.9636 94.2737 42.2912 95.5772 42.9142C100.958 45.4856 103.217 51.9487 100.639 57.3428C98.0614 62.7369 91.6036 65.0337 86.2326 62.4667C84.9383 61.8482 83.8238 60.9962 82.9086 59.9885L76.4437 73.5156L90.3012 80.1385C88.9508 81.1582 87.8075 82.505 87.0265 84.139C84.4441 89.5424 86.7176 96.0006 92.0887 98.5676C97.4597 101.135 103.917 98.8378 106.495 93.4437C107.276 91.8097 107.615 90.0785 107.551 88.3828L126.946 97.6522C131.081 94.0396 134.375 89.8547 136.731 84.9248C144.492 68.6868 141.434 45.6929 122.954 36.8609Z"/><path stroke="#172947" stroke-linecap="round" stroke-linejoin="round" stroke-width=".39" d="M53.5302 121.459L61.5082 104.766C59.8213 104.827 58.0915 104.502 56.4644 103.724C51.0841 101.153 48.8243 94.6897 51.4023 89.2956C53.9803 83.9015 60.438 81.6047 65.8091 84.1717C67.4361 84.9493 68.7799 86.0819 69.7879 87.4418L76.4392 73.5248L62.5817 66.902C63.9321 65.8823 65.0754 64.5355 65.8564 62.9015C68.4388 57.4981 66.1653 51.0398 60.7942 48.4729C55.4231 45.9059 48.9654 48.2026 46.3874 53.5968C45.6065 55.2308 45.2674 56.9619 45.3314 58.6576L25.9272 49.3839"/><path stroke="#172947" stroke-linecap="round" stroke-linejoin="round" stroke-width=".39" d="M126.942 97.6613L107.547 88.3919C107.602 90.0832 107.272 91.8188 106.491 93.4528C103.909 98.8562 97.4553 101.144 92.0842 98.5767C86.7132 96.0098 84.4441 89.5422 87.0221 84.1481C87.803 82.5141 88.9371 81.1629 90.2968 80.1476L76.4392 73.5247L69.7879 87.4417C68.7755 86.0911 67.4361 84.9492 65.8091 84.1716C60.4288 81.6002 53.9802 83.9014 51.4023 89.2955C48.8243 94.6896 51.0934 101.157 56.4644 103.724C58.0915 104.502 59.8168 104.836 61.5082 104.766L53.5302 121.459"/><path stroke="#172947" stroke-linecap="round" stroke-linejoin="round" stroke-width=".39" d="M93.0919 38.6812L91.561 41.8842C92.92 41.9634 94.2737 42.2911 95.5772 42.9141C100.958 45.4854 103.217 51.9485 100.639 57.3427C98.0614 62.7368 91.6036 65.0335 86.2326 62.4666C84.9383 61.848 83.8238 60.996 82.9086 59.9884L76.4437 73.5155L90.3012 80.1383C88.9508 81.158 87.8075 82.5048 87.0265 84.1388C84.4441 89.5422 86.7176 96.0005 92.0887 98.5674C97.4597 101.134 103.917 98.8377 106.495 93.4435C107.276 91.8095 107.615 90.0784 107.551 88.3827L126.946 97.652"/></svg>