<svg width="180" height="273" viewBox="0 0 180 273" fill="none" xmlns="http://www.w3.org/2000/svg">
<path d="M110.03 172.161C110.53 176.227 109.839 180.605 108.213 184.401C104.954 191.962 98.8639 197.87 93.5753 204.172C88.2866 210.474 83.4532 217.981 83.6283 226.174C83.8481 235.991 91.0687 244.235 92.8063 253.879C93.6287 258.549 92.9857 263.396 91.1872 267.805" stroke="#172A4D" stroke-width="0.28" stroke-linecap="round" stroke-linejoin="round"/>
<path d="M166.25 24.555C165.831 24.3892 165.42 24.2557 165.001 24.0899C164.571 23.9444 164.16 23.8109 163.729 23.6655C144.165 17.373 105.459 16.0995 87.1381 72.4567C77.2829 107.887 84.1054 150.759 108.204 164.914C102.408 167.667 95.8826 171.832 97.1559 176.385C99.3922 184.315 109.234 178.32 115.698 184.217C120.735 188.801 128.271 185.731 120.582 169.283C148.382 173.389 180.805 144.052 195.415 110.149C216.566 54.7551 185.524 31.7489 166.25 24.555Z" fill="#FF5550"/>
<path d="M176.662 127.039C174.48 130.12 172.17 133.097 169.735 135.918" stroke="#8E1A1A" stroke-width="0.52" stroke-linecap="round" stroke-linejoin="round"/>
<path d="M190.474 56.5328C196.42 69.9101 195.574 86.9368 187.902 107.124C185.797 111.957 183.298 116.721 180.433 121.323" stroke="#8E1A1A" stroke-width="0.52" stroke-linecap="round" stroke-linejoin="round"/>
<path d="M93.7504 128.577C90.6393 116.248 90.1044 102.145 92.102 88.3611" stroke="#8E1A1A" stroke-width="0.52" stroke-linecap="round" stroke-linejoin="round"/>
<path d="M118.392 172.333C121.47 179.579 120.665 182.541 120.198 182.87" stroke="#8E1A1A" stroke-width="0.52" stroke-linecap="round" stroke-linejoin="round"/>
<path d="M101.903 177.329C101.134 177.066 100.646 176.694 100.308 175.475C100.026 174.483 101.165 173.067 103.238 171.545" stroke="#8E1A1A" stroke-width="0.52" stroke-linecap="round" stroke-linejoin="round"/>
<path d="M108.225 164.926C110.137 166.061 112.191 167.003 114.333 167.751C116.382 168.471 118.5 168.984 120.634 169.287" stroke="#8E1A1A" stroke-width="0.52" stroke-linecap="round" stroke-linejoin="round"/>
<path d="M174.755 99.6015C175.337 94.4436 171.64 89.802 166.515 89.2663C164.949 89.1078 163.447 89.3454 162.091 89.8891L163.24 79.6464C163.549 76.8306 162.035 76.4005 160.042 76.1816L150.355 75.1692C151.164 73.943 151.715 72.5088 151.908 70.9447C152.491 65.7869 148.794 61.1452 143.668 60.6095C138.543 60.0738 133.89 63.8354 133.308 68.9933C133.135 70.5693 133.357 72.0767 133.884 73.4353L124.407 72.4371C121.15 72.1013 120.454 73.7797 120.249 75.5018L119.14 85.3555C117.928 84.5541 116.507 84.0138 114.953 83.8351C109.827 83.2993 105.174 87.061 104.592 92.2188C104.009 97.3767 107.706 102.018 112.831 102.554C114.398 102.712 115.899 102.475 117.256 101.931L116.207 111.133C116.022 112.729 116.184 115.302 120.11 115.704L128.983 116.619C128.174 117.845 127.623 119.279 127.43 120.843C126.848 126.001 130.545 130.643 135.67 131.179C140.795 131.714 145.448 127.953 146.031 122.795C146.203 121.219 145.982 119.711 145.454 118.353L154.263 119.285C158.523 119.72 158.941 117.546 159.222 115.099L160.198 106.432C161.41 107.234 162.832 107.774 164.386 107.953C169.511 108.489 174.164 104.727 174.747 99.5692L174.755 99.6015Z" fill="#FFDA72"/>
<path d="M152.277 79.5007L159.073 80.2019L158.245 87.6083" stroke="#B28618" stroke-width="0.42" stroke-linecap="round" stroke-linejoin="round"/>
<path d="M137.66 71.9326C137.342 71.1385 137.249 70.2855 137.346 69.4346C137.683 66.5254 140.308 64.3947 143.211 64.6855" stroke="#B28618" stroke-width="0.42" stroke-linecap="round" stroke-linejoin="round"/>
<path d="M123.351 84.2207L124.219 76.563L130.753 77.2465" stroke="#B28618" stroke-width="0.42" stroke-linecap="round" stroke-linejoin="round"/>
<path d="M113.286 98.5304C112.879 98.4818 112.484 98.4129 112.106 98.271C109.779 97.4685 108.345 95.1598 108.638 92.6921" stroke="#B28618" stroke-width="0.42" stroke-linecap="round" stroke-linejoin="round"/>
<path d="M126.764 112.331L120.249 111.659L121.013 104.82" stroke="#B28618" stroke-width="0.42" stroke-linecap="round" stroke-linejoin="round"/>
<path d="M141.977 122.426C141.816 123.844 141.12 125.11 140.021 125.999C138.922 126.888 137.533 127.303 136.124 127.155C135.717 127.106 135.323 127.038 134.944 126.896" stroke="#B28618" stroke-width="0.42" stroke-linecap="round" stroke-linejoin="round"/>
<path d="M155.947 107.956L155.104 115.298L149.362 114.699" stroke="#B28618" stroke-width="0.42" stroke-linecap="round" stroke-linejoin="round"/>
<path d="M166.037 93.3303C166.444 93.3789 166.838 93.4478 167.217 93.5897C169.544 94.3921 170.978 96.7009 170.684 99.1685" stroke="#B28618" stroke-width="0.42" stroke-linecap="round" stroke-linejoin="round"/>
</svg>
