<svg width="248" height="277" viewBox="0 0 248 277" fill="none" xmlns="http://www.w3.org/2000/svg">
<path d="M136.513 194.037C144.077 199.962 144.782 211.682 140.695 220.386C136.627 229.075 128.977 235.475 121.557 241.592C114.137 247.709 106.519 254.149 102.571 262.905C100.696 267.039 99.9227 271.89 100.455 276.409" stroke="#172A4D" stroke-width="0.28" stroke-linecap="round" stroke-linejoin="round"/>
<path d="M95.296 27.2871C94.8304 27.4006 94.3808 27.5338 93.8953 27.6633C93.4259 27.8126 92.9763 27.9458 92.5069 28.0951C71.0991 34.7468 35.8796 57.7508 55.0368 118.751C68.5487 156.056 101.56 189.462 131.927 186.889C128.49 192.906 125.318 200.675 129.331 203.861C136.316 209.434 141.309 198.033 150.727 199.185C158.084 200.1 162.869 192.667 145.674 183.009C172.988 169.299 183.389 123.288 175.093 84.3639C159.039 22.499 116.979 21.6262 95.2921 27.323L95.296 27.2871Z" fill="#FFA3DA"/>
<path d="M138.42 114.341C138.737 114.937 139.534 115.113 140.283 114.214L146.872 106.376C147.704 105.376 147.309 104.155 146.713 103.62L138.359 96.595C137.744 96.0756 137.105 96.624 136.869 97.3061C136.478 98.2438 135.944 99.1661 135.238 99.9975C131.706 104.19 125.446 104.718 121.253 101.186C117.06 97.6535 116.533 91.3937 120.065 87.2007C120.668 86.4852 121.347 85.9049 122.09 85.4039C123.214 84.7262 122.971 83.6118 122.339 83.0726L115.452 77.2569C113.853 75.925 112.353 76.2179 111.128 77.6649L104.004 86.0988C103.412 84.6752 102.483 83.3604 101.22 82.2821C97.0267 78.7499 90.7669 79.2772 87.2347 83.4702C83.7025 87.6632 84.2299 93.923 88.4228 97.4551C89.686 98.5335 91.1546 99.2167 92.6617 99.5412L84.7687 108.89C84.0829 109.706 84.3911 111.063 85.0586 111.606L93.2126 118.464C93.5963 118.777 94.4878 118.582 94.8431 117.804C95.2497 116.886 95.7639 115.98 96.4497 115.165C99.9819 110.972 106.242 110.444 110.435 113.977C114.628 117.509 115.155 123.769 111.623 127.961C110.834 128.893 109.901 129.646 108.915 130.211C108.224 130.573 108.286 131.178 108.753 131.554L117.239 138.702C117.839 139.201 119.018 139.364 119.974 138.233L126.475 130.53C127.391 129.431 126.612 128.749 126.105 128.568C125.167 128.177 124.261 127.663 123.446 126.977C119.253 123.445 118.725 117.185 122.257 112.992C125.79 108.799 132.049 108.272 136.242 111.804C137.126 112.534 137.814 113.387 138.368 114.317L138.42 114.341Z" fill="#9C6BFF"/>
</svg>
