<svg width="180" height="273" viewBox="0 0 180 273" fill="none" xmlns="http://www.w3.org/2000/svg">
<path d="M110.03 172.161C110.53 176.227 109.839 180.605 108.213 184.401C104.954 191.962 98.8639 197.87 93.5753 204.172C88.2866 210.474 83.4532 217.981 83.6283 226.174C83.8481 235.991 91.0687 244.235 92.8063 253.879C93.6287 258.549 92.9857 263.396 91.1872 267.805" stroke="#172A4D" stroke-width="0.28" stroke-linecap="round" stroke-linejoin="round"/>
<path d="M166.25 24.555C165.831 24.3892 165.42 24.2557 165.001 24.0899C164.571 23.9444 164.16 23.8109 163.729 23.6655C144.165 17.373 105.459 16.0995 87.1381 72.4567C77.2829 107.887 84.1054 150.759 108.205 164.914C102.408 167.667 95.8826 171.832 97.1559 176.385C99.3922 184.315 109.234 178.32 115.698 184.217C120.735 188.801 128.271 185.731 120.582 169.283C148.382 173.389 180.805 144.052 195.415 110.149C216.566 54.7551 185.524 31.7489 166.25 24.555Z" fill="#51DB86"/>
<path d="M174.755 99.6015C175.337 94.4436 171.64 89.802 166.515 89.2663C164.949 89.1078 163.447 89.3454 162.091 89.8891L163.24 79.6465C163.549 76.8306 162.035 76.4005 160.042 76.1816L150.355 75.1692C151.164 73.943 151.715 72.5088 151.908 70.9447C152.491 65.7869 148.794 61.1452 143.668 60.6095C138.543 60.0738 133.89 63.8354 133.308 68.9933C133.135 70.5693 133.357 72.0767 133.884 73.4353L124.407 72.4371C121.15 72.1013 120.454 73.7797 120.249 75.5018L119.14 85.3555C117.928 84.5541 116.507 84.0138 114.953 83.8351C109.827 83.2993 105.174 87.061 104.592 92.2188C104.009 97.3767 107.706 102.018 112.831 102.554C114.398 102.712 115.899 102.475 117.256 101.931L116.207 111.133C116.022 112.729 116.184 115.302 120.11 115.704L128.983 116.619C128.174 117.845 127.623 119.279 127.43 120.843C126.848 126.001 130.545 130.643 135.67 131.179C140.795 131.714 145.448 127.953 146.031 122.795C146.203 121.219 145.982 119.711 145.454 118.353L154.263 119.285C158.523 119.72 158.941 117.546 159.222 115.099L160.198 106.432C161.41 107.234 162.832 107.774 164.386 107.953C169.511 108.489 174.164 104.727 174.747 99.5692L174.755 99.6015Z" fill="#5180CF"/>
</svg>
