<svg xmlns="http://www.w3.org/2000/svg" width="60" height="60" fill="none" viewBox="0 0 60 60"><path fill="#87E8D5" d="M25.2719 51.617C25.8384 53.0256 26.7312 54.2281 27.8128 55.1386L15.7778 60L10.9191 47.9581C12.3441 48.0955 13.8034 47.9065 15.2284 47.3396C19.8982 45.45 22.1472 40.1248 20.2759 35.4523C18.3874 30.7798 13.0652 28.5295 8.39535 30.4019C6.98754 30.9688 5.78575 31.8621 4.87583 32.9443L0 20.9367L12.035 16.0753C10.9534 15.1476 10.0607 13.9623 9.49413 12.5537C7.6056 7.88125 9.87183 2.556 14.5416 0.66639C19.2114 -1.22321 24.5336 1.04431 26.4222 5.71679C26.9887 7.12541 27.1776 8.60273 27.0402 10.0285L39.0753 5.16709L43.9339 17.209C44.861 16.1268 46.0456 15.2335 47.4535 14.6666C52.1233 12.777 57.4455 15.0274 59.334 19.717C61.2225 24.3895 58.9563 29.7148 54.2865 31.6044C52.8787 32.1713 51.4022 32.3602 49.9772 32.2228L54.8359 44.2647L42.8008 49.1262C42.9382 47.7004 42.7493 46.2402 42.1828 44.8144C40.2942 40.142 34.972 37.8916 30.3022 39.764C25.6324 41.6536 23.3834 46.9789 25.2547 51.6514L25.2719 51.617Z"/></svg>