<svg width="75" height="73" viewBox="0 0 75 73" fill="none" xmlns="http://www.w3.org/2000/svg">
<path d="M10.1364 27.3161C11.4848 28.3481 13.0143 29.0002 14.5779 29.2706L5.76881 40.7361L17.2343 49.5451C17.5047 47.9815 18.1568 46.452 19.1888 45.1036C22.6152 40.6623 28.9861 39.8278 33.4299 43.2361C37.8712 46.6625 38.7058 53.0334 35.2974 57.4773C34.2655 58.8257 32.9482 59.8404 31.5132 60.5077L42.9787 69.3168L51.7877 57.8513C50.2241 57.5809 48.6946 56.9288 47.3462 55.8969C42.9049 52.4705 42.0704 46.0995 45.4787 41.6557C48.9051 37.2144 55.276 36.3798 59.7199 39.7882C61.0683 40.8202 62.083 42.1374 62.7503 43.5725L71.5594 32.1069L60.0939 23.2979C59.8235 24.8615 59.1714 26.391 58.1395 27.7394C54.7131 32.1807 48.3421 33.0152 43.8983 29.6069C39.457 26.1805 38.6224 19.8096 42.0308 15.3658C43.0628 14.0173 44.38 13.0026 45.8151 12.3353L34.3495 3.52621L25.5405 14.9917C24.8731 13.5567 23.8584 12.2394 22.51 11.2075C18.0686 7.78108 11.6772 8.63117 8.26884 13.075C4.86049 17.5188 5.69252 23.9078 10.1364 27.3161Z" fill="#7BD9EE"/>
</svg>
