<svg xmlns="http://www.w3.org/2000/svg" width="66" height="66" fill="none" viewBox="0 0 66 66"><path fill="#FED319" d="M4.3676 23.79C5.71601 24.822 7.24549 25.4741 8.8091 25.7444L5.26721e-05 37.21L11.4656 46.019C11.736 44.4554 12.388 42.9259 13.42 41.5775C16.8464 37.1362 23.2173 36.3016 27.6611 39.71C32.1025 43.1364 32.937 49.5073 29.5287 53.9511C28.4967 55.2995 27.1794 56.3143 25.7444 56.9816L37.2099 65.7907L46.019 54.3251C44.4554 54.0548 42.9259 53.4027 41.5775 52.3707C37.1361 48.9443 36.3016 42.5734 39.71 38.1296C43.1364 33.6882 49.5073 32.8537 53.9511 36.2621C55.2995 37.294 56.3143 38.6113 56.9816 40.0463L65.7906 28.5808L54.3251 19.7718C54.0547 21.3354 53.4027 22.8648 52.3707 24.2133C48.9443 28.6546 42.5734 29.4891 38.1296 26.0808C33.6882 22.6544 32.8537 16.2835 36.262 11.8396C37.294 10.4912 38.6112 9.47648 40.0463 8.80914L28.5808 9.09329e-05L19.7717 11.4656C19.1044 10.0306 18.0896 8.71332 16.7412 7.68136C12.2999 4.25495 5.90842 5.10504 2.50008 9.54888C-0.908269 13.9927 -0.0762355 20.3817 4.3676 23.79Z"/></svg>