<svg width="61" height="59" viewBox="0 0 61 59" fill="none" xmlns="http://www.w3.org/2000/svg">
<path d="M56.1628 35.1097C54.878 34.3603 53.4756 33.965 52.0806 33.896L58.5124 22.9298L47.5462 16.498C48.7347 15.7556 49.7535 14.7284 50.5155 13.4433C53.0057 9.18173 51.577 3.71529 47.328 1.22483C43.079 -1.26563 37.6 0.163285 35.1095 4.41233C34.3601 5.69713 33.9648 7.09951 33.8958 8.49454L22.9296 2.0627L16.4978 13.0289C15.7555 11.8404 14.7282 10.8216 13.4431 10.0596C9.18154 7.56943 3.7151 8.99806 1.22464 13.2471C-1.26554 17.5087 0.163093 22.9751 4.41213 25.4656C5.69694 26.215 7.09932 26.6103 8.49435 26.6793L2.06279 37.658L13.029 44.0899C13.098 42.6949 13.4933 41.2925 14.2427 40.0077C16.7329 35.7461 22.2121 34.3297 26.4612 36.8202C30.7228 39.3104 32.1391 44.7896 29.6487 49.0387C28.8993 50.3235 27.8679 51.351 26.6794 52.0933L37.6453 58.5126L44.0771 47.5464C44.8195 48.7349 45.8467 49.7537 47.1318 50.5157C51.3934 53.0059 56.8598 51.5772 59.3503 47.3282C61.8405 43.0666 60.4118 37.6002 56.1628 35.1097Z" fill="#A49AFF"/>
</svg>
