<svg xmlns="http://www.w3.org/2000/svg" width="60" height="60" fill="none" viewBox="0 0 60 60"><path fill="#FF93F8" d="M12.6363 47.2653C12.2267 48.7273 12.2014 50.2248 12.5037 51.6058L-3.08077e-05 48.1227L3.48946 35.6152C4.53526 36.5928 5.80725 37.3327 7.28241 37.752C12.1361 39.1009 17.1653 36.2506 18.5302 31.4059C19.8816 26.5508 17.0346 21.5225 12.1914 20.16C10.7298 19.7511 9.23261 19.7266 7.85158 20.0298L11.3065 7.53899L23.8103 11.0221C23.5184 9.62738 23.5333 8.14356 23.9429 6.68157C25.2943 1.82644 30.337 -1.01335 35.1907 0.335539C40.0444 1.68443 42.881 6.72639 41.5296 11.5815C41.12 13.0435 40.3691 14.3297 39.391 15.3762L51.8948 18.8593L48.4053 31.3668C49.8 31.0741 51.2835 31.0882 52.7451 31.497C57.5988 32.8459 60.4458 37.8743 59.084 42.743C57.7326 47.5982 52.6898 50.4379 47.8361 49.0891C46.3746 48.6802 45.089 47.9299 44.0432 46.9523L40.5537 59.4598L28.0499 55.9767C29.028 54.9302 29.7684 53.6576 30.1885 52.182C31.5399 47.3269 28.6928 42.2986 23.8496 40.9361C18.9959 39.5872 13.9668 42.4374 12.6018 47.2821L12.6363 47.2653Z"/></svg>